<svg xmlns="http://www.w3.org/2000/svg" width="1000.00" height="712.12" viewBox="0 0 1000.00 712.12">
<path id="OC" title="Ocotepeque" d="M2.82,482.18 L0.35,481.79 L0.00,476.80 L0.29,474.26 L1.33,472.17 L2.97,471.13 L6.54,470.24 L7.86,468.88 L9.46,466.09 L11.69,463.74 L16.71,459.53 L18.17,457.77 L18.95,456.52 L20.16,455.73 L22.89,455.38 L24.86,455.73 L28.89,457.08 L30.74,456.94 L32.63,455.19 L33.38,452.53 L33.46,449.69 L32.79,441.60 L33.36,440.60 L35.06,438.80 L35.47,437.55 L35.18,434.81 L34.91,434.40 L37.34,433.73 L42.53,432.22 L44.64,431.51 L54.25,432.81 L56.71,436.15 L57.87,440.98 L59.23,443.26 L69.50,450.81 L70.51,453.01 L70.42,457.21 L70.68,458.40 L72.81,461.67 L75.58,464.50 L78.45,465.68 L80.63,466.22 L82.56,467.80 L84.54,468.18 L86.17,467.70 L86.59,467.43 L86.46,466.90 L86.08,466.40 L86.02,465.74 L86.00,463.83 L86.54,462.59 L87.71,461.82 L90.35,460.85 L91.89,460.44 L93.37,460.21 L94.65,460.22 L97.78,460.73 L101.59,460.41 L103.07,460.97 L103.49,461.28 L104.03,463.73 L99.85,475.64 L99.47,477.51 L98.93,478.16 L98.04,478.94 L96.76,479.66 L92.12,481.16 L88.72,480.68 L87.66,479.96 L87.33,480.01 L87.10,480.39 L86.73,481.88 L86.68,482.99 L86.76,483.77 L88.74,486.39 L84.61,486.46 L82.77,485.65 L81.90,484.83 L80.36,483.04 L79.20,483.02 L78.31,483.33 L77.94,484.90 L77.74,486.98 L76.73,489.21 L75.90,490.57 L70.65,492.94 L68.08,493.22 L67.03,493.93 L66.04,495.04 L64.66,497.23 L63.68,498.29 L62.55,499.23 L61.91,500.09 L61.75,501.31 L62.98,505.24 L63.33,510.43 L63.14,514.73 L63.05,513.98 L62.44,511.97 L61.00,509.60 L59.52,507.86 L55.45,504.86 L54.73,503.42 L54.09,498.50 L53.07,496.52 L50.50,495.27 L45.03,494.65 L43.20,493.12 L43.84,491.54 L43.98,489.91 L43.63,488.31 L42.83,486.84 L41.91,485.63 L41.12,484.92 L40.18,484.75 L38.76,485.13 L37.49,486.40 L35.18,490.74 L33.66,492.09 L26.25,489.94 L22.18,487.14 L14.00,485.44 L9.02,483.14 L2.82,482.18 Z" />
<path id="LE" title="Lempira" d="M65.23,518.74 L63.82,517.74 L63.30,516.04 L63.14,514.73 L63.33,510.43 L62.98,505.24 L61.75,501.31 L61.91,500.09 L62.55,499.23 L63.68,498.29 L64.66,497.23 L66.04,495.04 L67.03,493.93 L68.08,493.22 L70.65,492.94 L75.90,490.57 L76.73,489.21 L77.74,486.98 L77.94,484.90 L78.31,483.33 L79.20,483.02 L80.36,483.04 L81.90,484.83 L82.77,485.65 L84.61,486.46 L88.74,486.39 L86.76,483.77 L86.68,482.99 L86.73,481.88 L87.10,480.39 L87.33,480.01 L87.66,479.96 L88.72,480.68 L92.12,481.16 L96.76,479.66 L98.04,478.94 L98.93,478.16 L99.47,477.51 L99.85,475.64 L104.03,463.73 L103.49,461.28 L103.07,460.97 L101.59,460.41 L101.10,450.71 L99.18,447.33 L98.02,445.65 L93.13,441.12 L91.39,437.04 L91.30,436.37 L91.60,433.98 L93.96,433.22 L101.97,434.14 L107.77,433.73 L112.31,432.44 L113.56,432.32 L113.71,431.37 L113.63,430.45 L112.94,427.55 L111.29,423.96 L110.21,422.19 L110.05,419.80 L110.29,417.69 L110.69,416.37 L111.38,415.15 L112.25,414.34 L113.41,412.95 L113.74,412.24 L113.45,410.51 L115.58,408.99 L116.23,404.74 L115.38,399.67 L121.05,398.01 L122.26,397.37 L129.74,398.48 L133.25,407.53 L137.67,414.58 L140.61,418.19 L141.84,417.79 L144.40,415.70 L146.02,413.17 L147.82,411.46 L149.22,411.35 L151.02,412.11 L151.37,412.47 L153.37,415.19 L157.66,415.10 L160.95,417.02 L156.41,424.56 L157.34,425.59 L159.91,429.81 L162.24,431.04 L164.93,431.38 L166.91,431.14 L167.97,433.01 L167.09,437.92 L163.64,443.48 L165.23,446.41 L167.05,456.49 L163.89,462.10 L162.95,465.13 L162.63,467.01 L160.96,469.67 L156.54,471.94 L152.76,472.47 L145.47,472.39 L141.54,473.55 L138.86,475.23 L138.34,476.47 L139.44,483.14 L142.63,487.30 L145.91,490.10 L149.42,490.53 L149.99,491.09 L151.03,492.46 L152.74,500.46 L152.47,503.37 L150.92,506.65 L150.78,507.79 L151.17,508.67 L151.93,509.24 L152.82,509.73 L153.87,510.20 L154.85,510.84 L155.79,511.33 L156.55,511.60 L157.19,511.63 L157.97,511.47 L158.78,511.42 L159.78,511.49 L163.27,512.22 L166.14,513.85 L166.40,515.50 L166.18,516.14 L166.18,517.69 L166.12,518.36 L166.37,521.80 L167.44,528.87 L167.09,531.14 L166.55,531.59 L165.69,532.52 L165.44,533.24 L165.28,534.22 L165.28,535.47 L164.85,536.12 L164.41,536.38 L163.64,536.56 L162.16,537.14 L158.58,540.32 L149.61,545.44 L144.43,547.71 L141.76,549.70 L141.30,550.44 L141.18,550.85 L139.39,553.20 L139.04,553.41 L139.14,553.33 L139.19,552.94 L139.31,552.43 L137.88,551.06 L136.32,550.43 L129.25,549.90 L117.10,546.12 L113.01,545.86 L108.93,546.47 L107.94,546.84 L107.96,546.55 L108.02,545.73 L107.66,544.39 L106.87,543.31 L105.71,542.34 L104.96,542.08 L101.52,541.63 L99.01,540.03 L99.10,537.77 L100.06,535.13 L100.20,532.41 L99.05,530.58 L97.65,530.72 L95.99,531.72 L94.08,532.44 L87.05,531.93 L84.23,532.34 L83.18,527.81 L80.77,523.01 L77.41,518.89 L73.44,516.43 L70.93,516.38 L68.69,517.32 L66.79,518.40 L65.23,518.74 Z" />
<path id="IN" title="Intibucá" d="M138.91,553.52 L139.04,553.41 L139.39,553.20 L141.18,550.85 L141.30,550.44 L141.76,549.70 L144.43,547.71 L149.61,545.44 L158.58,540.32 L162.16,537.14 L163.64,536.56 L164.41,536.38 L164.85,536.12 L165.28,535.47 L165.28,534.22 L165.44,533.24 L165.69,532.52 L166.55,531.59 L167.09,531.14 L167.44,528.87 L166.37,521.80 L166.12,518.36 L166.18,517.69 L166.18,516.14 L166.40,515.50 L166.14,513.85 L163.27,512.22 L159.78,511.49 L158.78,511.42 L157.97,511.47 L157.19,511.63 L156.55,511.60 L155.79,511.33 L154.85,510.84 L153.87,510.20 L152.82,509.73 L151.93,509.24 L151.17,508.67 L150.78,507.79 L150.92,506.65 L152.47,503.37 L152.74,500.46 L151.03,492.46 L149.99,491.09 L149.42,490.53 L145.91,490.10 L142.63,487.30 L139.44,483.14 L138.34,476.47 L138.86,475.23 L141.54,473.55 L145.47,472.39 L152.76,472.47 L156.54,471.94 L160.96,469.67 L162.63,467.01 L162.95,465.13 L163.89,462.10 L167.05,456.49 L165.23,446.41 L163.64,443.48 L176.12,444.36 L185.51,443.40 L192.60,442.78 L197.99,443.84 L202.68,444.28 L203.81,443.45 L206.76,441.79 L208.95,444.73 L209.78,445.10 L211.37,445.58 L212.58,445.72 L218.11,447.12 L220.82,449.06 L223.74,450.09 L225.24,452.04 L226.55,454.45 L226.71,455.05 L226.87,456.71 L227.23,457.74 L228.26,459.72 L229.50,460.70 L233.39,462.58 L234.40,463.37 L234.98,464.06 L235.03,465.68 L234.87,467.19 L236.77,468.95 L241.92,475.30 L243.14,477.58 L243.21,478.15 L243.15,478.64 L243.01,479.01 L242.36,479.61 L235.21,484.75 L233.29,485.80 L231.30,486.62 L229.62,486.64 L228.36,486.36 L227.27,485.95 L226.48,485.99 L225.99,486.86 L225.63,488.99 L226.28,493.88 L223.70,498.64 L222.85,499.70 L221.31,500.75 L219.40,501.48 L218.41,502.26 L217.85,504.28 L217.96,505.51 L216.63,507.74 L209.90,507.98 L204.39,512.45 L201.79,515.02 L200.40,518.36 L199.07,520.20 L198.63,520.63 L194.02,522.87 L192.28,524.46 L183.55,533.89 L182.54,534.77 L181.95,534.59 L181.53,535.04 L181.54,535.81 L182.58,537.42 L183.61,538.47 L185.05,541.49 L183.63,549.51 L183.86,549.90 L183.87,549.92 L183.49,549.84 L181.08,549.59 L179.50,550.17 L179.43,550.71 L179.58,553.88 L179.92,554.46 L181.35,555.74 L181.64,556.18 L180.87,558.37 L179.84,558.60 L178.42,558.38 L176.50,559.18 L175.45,560.31 L174.80,561.42 L174.27,562.35 L173.00,563.53 L171.25,564.11 L169.31,564.25 L167.57,564.87 L166.46,566.88 L165.43,566.46 L164.15,566.09 L162.87,565.87 L161.83,565.94 L161.33,566.51 L161.21,567.50 L161.21,568.45 L161.02,568.92 L159.85,568.80 L157.29,567.82 L155.75,567.73 L149.29,569.13 L146.37,570.33 L143.36,572.11 L139.09,572.32 L140.50,570.05 L140.39,567.48 L138.66,563.27 L138.21,561.74 L138.54,559.38 L139.09,557.42 L139.20,555.55 L138.38,553.80 L138.21,553.43 L138.87,553.51 L138.91,553.52 Z" />
<path id="LP" title="La Paz" d="M190.31,550.82 L187.75,550.76 L183.87,549.92 L183.86,549.90 L183.63,549.51 L185.05,541.49 L183.61,538.47 L182.58,537.42 L181.54,535.81 L181.53,535.04 L181.95,534.59 L182.54,534.77 L183.55,533.89 L192.28,524.46 L194.02,522.87 L198.63,520.63 L199.07,520.20 L200.40,518.36 L201.79,515.02 L204.39,512.45 L209.90,507.98 L216.63,507.74 L217.96,505.51 L217.85,504.28 L218.41,502.26 L219.40,501.48 L221.31,500.75 L222.85,499.70 L223.70,498.64 L226.28,493.88 L225.63,488.99 L225.99,486.86 L226.48,485.99 L227.27,485.95 L228.36,486.36 L229.62,486.64 L231.30,486.62 L233.29,485.80 L235.21,484.75 L242.36,479.61 L244.00,481.98 L246.20,484.22 L252.55,485.90 L252.68,486.22 L254.17,487.75 L254.64,487.93 L259.53,488.88 L261.26,489.79 L264.52,490.93 L266.23,491.06 L267.54,491.42 L274.75,488.54 L275.49,489.12 L277.43,493.23 L277.88,494.48 L278.44,497.58 L277.36,499.30 L278.69,500.55 L278.16,502.62 L276.63,504.54 L275.89,505.07 L274.47,505.62 L271.95,506.15 L269.53,505.82 L267.43,507.36 L265.94,508.06 L262.48,509.28 L260.49,509.75 L257.96,510.11 L254.75,509.84 L248.75,511.28 L247.81,510.89 L247.55,510.88 L247.09,510.96 L246.74,511.19 L246.27,512.30 L246.76,515.47 L252.30,517.74 L254.55,520.31 L253.75,522.83 L253.39,523.48 L253.15,524.29 L253.35,524.91 L253.93,525.49 L256.61,526.48 L258.24,526.79 L260.05,527.48 L261.80,528.49 L264.62,530.83 L266.33,531.73 L267.47,533.18 L268.41,534.84 L268.58,540.26 L272.76,536.30 L274.84,534.80 L280.52,534.25 L283.51,555.30 L283.23,558.36 L281.99,564.02 L281.54,565.10 L281.11,565.74 L279.85,569.49 L275.41,575.04 L271.98,575.04 L268.06,572.52 L261.45,572.76 L258.97,573.21 L256.44,571.09 L255.46,570.56 L253.22,569.72 L252.38,569.22 L251.08,567.32 L249.52,563.10 L248.00,561.94 L245.60,562.04 L243.98,563.35 L242.66,564.99 L241.10,566.06 L239.56,566.16 L236.42,565.52 L234.81,565.43 L233.57,565.85 L231.50,567.40 L230.77,567.76 L229.67,567.45 L227.30,565.95 L226.39,565.77 L226.04,565.70 L223.64,566.33 L216.33,569.88 L215.00,565.90 L212.38,562.86 L209.42,560.24 L207.10,557.52 L204.75,551.57 L202.90,550.08 L198.67,549.85 L190.31,550.82 Z" />
<path id="VA" title="Valle" d="M255.82,627.64 L254.17,627.06 L252.49,623.39 L253.43,618.96 L257.28,609.90 L257.64,606.97 L257.51,601.02 L258.09,598.19 L259.49,596.22 L261.10,594.73 L261.89,593.01 L260.85,590.35 L261.65,587.73 L264.89,580.46 L266.34,578.12 L263.52,577.02 L258.97,573.21 L261.45,572.76 L268.06,572.52 L271.98,575.04 L275.41,575.04 L275.38,579.76 L275.04,586.75 L276.25,588.57 L282.80,592.94 L287.72,593.86 L290.66,593.57 L291.24,593.80 L291.99,594.24 L292.47,594.81 L298.18,599.04 L302.37,601.61 L304.01,602.05 L305.24,601.36 L305.56,601.72 L308.39,604.02 L309.74,604.70 L310.83,605.47 L311.55,606.55 L311.14,612.93 L311.87,614.11 L312.52,615.41 L312.71,616.48 L315.00,621.35 L320.75,625.55 L320.23,628.85 L320.46,630.34 L321.35,632.75 L323.14,636.14 L323.42,639.41 L321.67,643.34 L318.41,645.78 L318.41,645.80 L316.04,643.67 L314.95,642.91 L313.48,642.61 L310.26,643.20 L308.99,642.93 L307.46,641.42 L304.72,643.37 L303.87,644.22 L303.08,645.80 L302.78,647.96 L303.33,649.12 L303.45,649.99 L301.88,651.27 L300.88,651.39 L295.32,651.27 L292.81,651.87 L291.37,651.92 L289.83,651.27 L289.83,650.18 L292.13,650.18 L292.13,649.19 L289.09,648.55 L285.96,647.45 L283.14,647.21 L281.07,649.19 L279.98,649.19 L280.28,647.61 L282.07,643.61 L279.87,642.77 L279.36,641.01 L279.98,636.49 L279.11,634.07 L277.11,634.48 L274.88,636.31 L273.31,638.13 L274.78,642.69 L272.42,646.95 L268.08,650.08 L263.55,651.27 L260.68,650.74 L256.93,648.49 L253.87,647.49 L253.61,646.40 L253.61,645.30 L253.04,644.80 L251.48,644.73 L250.39,644.48 L248.12,643.65 L260.76,638.01 L263.52,634.94 L263.90,632.88 L263.62,630.75 L262.79,628.82 L261.56,627.42 L259.22,626.54 L255.82,627.64 Z M280.53,662.33 L281.04,663.49 L280.73,665.99 L279.06,668.30 L275.49,668.90 L273.57,668.61 L272.89,668.32 L272.20,667.80 L272.20,666.81 L273.31,666.81 L272.70,665.96 L271.73,664.19 L271.12,663.33 L273.72,662.49 L275.77,662.21 L280.53,662.33 Z M279.38,649.69 L280.97,650.15 L285.30,649.24 L287.65,649.19 L287.65,650.18 L284.87,651.44 L286.77,657.77 L284.36,660.04 L276.93,657.67 L273.49,655.66 L273.90,652.87 L275.99,649.88 L277.44,648.96 L279.38,649.69 Z" />
<path id="OL" title="Olancho" d="M700.08,429.41 L699.75,429.62 L697.56,431.63 L696.13,434.13 L695.29,440.07 L694.77,441.03 L693.94,441.40 L691.42,442.07 L692.29,443.63 L696.83,446.78 L693.30,450.03 L692.35,451.26 L696.51,451.26 L696.28,451.78 L695.32,453.96 L689.61,459.53 L686.21,461.09 L683.49,459.11 L680.93,456.36 L678.01,455.64 L676.73,457.92 L676.04,462.37 L675.71,470.48 L675.14,471.52 L671.44,475.35 L671.25,476.37 L671.62,478.82 L671.44,479.84 L667.05,483.13 L669.63,484.78 L672.50,487.32 L674.56,490.52 L674.72,494.18 L672.86,496.83 L669.56,498.77 L665.55,500.06 L661.58,500.75 L655.50,500.75 L653.84,501.09 L650.02,502.94 L648.52,503.31 L647.64,504.21 L646.99,505.29 L645.85,506.62 L645.40,507.80 L644.95,508.32 L644.27,508.46 L642.55,508.20 L641.86,508.32 L640.31,509.77 L638.47,512.12 L636.92,514.63 L635.76,518.74 L634.44,521.79 L632.67,524.88 L630.81,527.13 L626.66,530.31 L623.92,531.86 L618.15,533.40 L617.23,535.52 L616.87,538.08 L615.37,540.28 L612.38,541.24 L609.73,541.70 L609.71,541.65 L607.72,536.42 L607.00,535.72 L605.77,534.78 L604.47,534.07 L602.88,532.85 L602.26,531.62 L601.98,530.03 L601.98,528.15 L601.33,524.81 L600.36,522.82 L598.80,521.12 L596.29,519.02 L594.92,518.60 L594.14,518.78 L593.84,519.98 L593.35,520.15 L592.24,520.04 L586.15,518.16 L578.55,516.56 L577.55,516.70 L576.86,517.39 L574.98,521.11 L574.23,521.71 L573.25,521.95 L571.13,521.57 L569.55,520.78 L567.44,519.35 L565.88,519.08 L564.53,519.24 L563.84,519.68 L563.22,520.24 L562.50,520.68 L560.85,521.42 L560.29,521.89 L559.90,522.48 L559.63,523.24 L559.47,524.89 L559.30,525.61 L558.87,526.29 L558.03,526.89 L556.86,527.29 L554.68,527.38 L553.59,527.14 L551.75,525.69 L548.56,521.57 L542.41,518.84 L541.17,517.81 L540.40,516.56 L540.13,515.11 L539.52,512.92 L538.56,510.80 L536.55,507.59 L534.90,506.19 L533.18,505.31 L530.35,504.68 L529.65,504.66 L528.97,504.85 L528.41,505.29 L527.98,505.82 L527.41,507.16 L526.79,507.79 L525.45,507.88 L521.39,506.96 L516.84,505.30 L515.70,504.10 L511.41,496.54 L509.97,494.86 L508.57,494.15 L506.50,493.73 L502.35,493.68 L500.70,493.88 L497.61,494.74 L495.26,495.89 L493.55,496.92 L492.64,497.21 L491.72,497.61 L490.93,498.18 L489.41,499.57 L485.78,501.77 L484.64,502.23 L482.78,502.50 L470.96,501.80 L469.48,501.32 L468.71,500.68 L467.80,498.48 L467.05,497.42 L466.31,496.60 L463.32,494.44 L459.59,493.45 L459.01,493.08 L455.76,489.91 L446.77,487.47 L443.40,487.09 L442.21,487.30 L441.47,487.10 L440.87,486.44 L440.08,484.80 L438.46,482.98 L437.76,482.60 L437.15,482.50 L435.47,482.76 L434.95,482.97 L434.45,483.24 L432.85,483.39 L431.95,483.25 L425.07,480.45 L425.17,478.21 L423.15,472.79 L422.64,470.59 L422.36,468.17 L421.78,467.01 L420.11,464.44 L419.72,462.94 L419.55,461.58 L420.22,459.01 L420.33,456.14 L417.32,452.38 L411.73,447.32 L410.24,445.80 L407.12,445.05 L405.70,443.92 L403.55,441.61 L401.65,438.14 L396.65,426.17 L395.34,420.25 L394.11,418.51 L393.67,416.78 L393.27,412.45 L392.53,410.75 L391.46,409.02 L390.88,407.87 L389.92,404.49 L391.48,403.19 L392.77,398.84 L394.28,397.62 L393.92,397.18 L393.30,396.66 L390.98,395.48 L389.14,393.59 L385.37,391.66 L383.92,390.29 L382.27,388.32 L381.62,387.25 L381.23,385.47 L383.50,381.51 L384.10,380.99 L385.07,380.38 L385.77,380.40 L387.04,380.64 L391.89,379.36 L395.10,376.54 L397.48,374.93 L398.36,373.49 L398.60,372.25 L398.63,371.24 L398.75,370.19 L399.14,369.07 L399.83,367.60 L400.95,365.88 L401.28,364.95 L401.26,364.34 L401.16,363.70 L401.20,363.21 L402.46,360.48 L401.21,350.81 L401.35,349.51 L401.86,347.33 L402.39,346.68 L403.05,346.21 L404.14,345.98 L406.54,344.74 L407.10,344.52 L408.46,343.54 L408.85,342.24 L416.32,340.64 L421.23,344.56 L422.59,344.91 L424.34,345.21 L427.24,345.20 L428.51,344.92 L429.53,344.39 L431.15,343.21 L432.74,342.73 L433.80,340.44 L435.07,338.94 L436.67,334.87 L437.26,333.92 L438.10,333.33 L438.77,333.41 L439.52,333.61 L440.37,333.67 L441.57,333.23 L455.17,326.05 L457.17,325.57 L458.94,325.56 L462.77,326.68 L465.09,327.91 L467.13,329.24 L468.61,330.51 L469.94,331.89 L470.71,333.02 L471.21,333.98 L472.20,334.77 L474.01,335.35 L477.84,335.40 L479.97,335.17 L484.13,333.22 L493.04,327.99 L495.10,327.29 L502.28,322.28 L512.11,327.36 L515.81,328.18 L519.48,327.34 L522.51,325.88 L525.18,325.38 L526.60,324.78 L529.48,324.38 L531.04,324.51 L532.34,324.88 L533.50,325.39 L534.56,325.39 L535.23,324.40 L544.47,319.57 L554.22,310.33 L558.16,304.10 L558.90,303.22 L560.00,302.77 L561.10,302.94 L562.17,303.31 L564.05,304.50 L565.81,304.60 L568.96,302.69 L572.41,299.99 L573.68,298.53 L574.21,297.37 L573.93,295.88 L577.48,294.17 L578.29,294.28 L579.37,294.73 L580.46,295.64 L582.02,296.27 L583.31,296.04 L584.91,295.45 L586.27,294.72 L589.65,295.42 L602.58,302.21 L619.02,315.91 L636.55,322.41 L642.25,326.88 L650.80,339.04 L660.08,350.05 L662.75,351.65 L685.20,361.26 L690.50,366.03 L700.08,376.99 L700.08,391.07 L700.08,429.28 L700.08,429.41 Z" />
<path id="GD" title="Gracias a Dios" d="M702.58,427.77 L700.08,429.41 L700.08,429.28 L700.08,391.07 L700.08,376.99 L700.08,229.52 L707.97,232.08 L723.42,238.86 L742.81,244.43 L751.96,247.45 L754.25,249.15 L753.26,251.14 L751.27,254.07 L751.26,256.60 L751.24,260.60 L754.61,263.77 L757.78,264.20 L761.72,262.96 L762.29,259.70 L762.73,258.23 L764.26,258.35 L765.35,260.35 L768.18,262.26 L772.22,261.65 L776.05,262.09 L783.91,263.08 L785.34,261.41 L787.86,260.37 L784.48,258.99 L780.44,258.12 L767.78,256.05 L762.98,254.03 L758.94,252.12 L757.53,249.58 L763.98,250.88 L786.03,254.90 L800.45,256.35 L809.96,256.84 L813.23,257.91 L821.93,264.91 L833.70,274.16 L851.15,288.51 L868.05,302.53 L877.48,310.18 L889.77,317.45 L892.74,319.14 L895.65,320.39 L901.30,321.31 L902.72,322.03 L903.82,323.60 L903.92,324.85 L902.87,325.67 L900.48,325.97 L897.67,324.91 L891.59,320.26 L887.06,318.75 L884.01,316.66 L882.51,316.00 L877.64,315.96 L875.52,315.51 L873.64,313.72 L874.39,313.45 L875.07,312.96 L875.83,312.71 L874.44,310.72 L869.17,304.95 L868.07,304.95 L866.32,305.80 L864.16,304.56 L861.91,302.72 L859.85,301.77 L856.56,302.17 L855.06,303.17 L853.89,304.56 L851.64,306.05 L850.62,305.38 L846.17,303.86 L848.22,302.10 L849.08,301.12 L849.46,300.08 L848.69,299.70 L846.96,299.43 L845.07,299.36 L843.87,299.59 L843.42,301.32 L844.46,304.07 L846.32,307.02 L848.35,309.34 L847.95,309.69 L847.77,309.80 L847.62,309.99 L847.26,310.53 L846.17,310.53 L841.36,301.50 L839.59,299.59 L837.76,299.28 L835.65,299.67 L832.91,300.57 L831.01,300.44 L828.25,299.80 L826.35,299.59 L827.59,303.23 L828.62,304.48 L831.56,305.48 L831.60,306.81 L831.07,308.62 L830.73,310.53 L831.83,310.53 L832.33,308.08 L835.54,306.62 L836.99,302.17 L838.50,301.70 L840.00,302.57 L842.17,307.82 L844.77,312.06 L845.72,315.68 L842.28,317.21 L840.58,318.99 L841.81,323.05 L844.53,327.44 L847.26,330.25 L851.40,332.38 L854.82,333.17 L856.35,331.67 L854.82,326.96 L856.98,328.61 L858.88,330.78 L859.64,333.26 L858.32,335.82 L860.51,338.47 L863.61,338.97 L871.45,338.02 L871.45,339.11 L869.90,339.05 L868.86,339.34 L867.08,340.20 L867.08,341.20 L868.41,343.93 L870.38,346.43 L873.01,348.25 L876.38,348.97 L879.30,348.62 L883.04,347.70 L886.63,346.31 L889.07,344.59 L887.04,342.68 L880.22,339.11 L879.07,338.01 L878.53,336.95 L877.88,336.14 L876.38,335.82 L874.66,335.70 L862.40,331.49 L860.40,330.25 L856.68,325.04 L854.82,323.68 L856.24,322.45 L857.82,321.64 L861.40,320.39 L875.72,326.49 L878.03,329.75 L878.94,331.45 L881.14,333.02 L883.86,334.18 L888.43,335.12 L890.33,336.41 L891.97,338.21 L893.36,340.20 L892.29,340.90 L890.99,342.02 L890.07,342.40 L890.07,343.40 L892.71,343.96 L894.94,342.39 L896.67,342.18 L897.85,346.88 L897.49,352.85 L897.85,354.44 L899.03,355.60 L900.24,355.52 L901.06,354.38 L901.03,352.26 L902.23,352.26 L903.65,355.38 L904.99,354.64 L907.70,349.96 L910.19,348.57 L913.51,347.61 L919.25,346.88 L919.96,346.12 L919.62,342.48 L919.85,341.20 L920.92,340.52 L921.94,340.60 L923.15,340.97 L933.55,342.94 L936.28,342.40 L936.28,343.40 L935.32,344.36 L935.43,345.00 L935.96,345.71 L936.28,346.88 L936.28,351.71 L935.44,354.13 L933.59,355.13 L931.75,354.44 L930.90,351.71 L930.32,350.90 L928.93,350.35 L927.26,350.05 L925.87,349.96 L924.91,350.62 L924.04,352.08 L923.03,354.44 L922.31,355.28 L921.60,355.79 L921.07,356.58 L920.84,358.28 L921.23,359.75 L922.14,360.02 L923.23,359.56 L924.13,358.83 L923.31,357.47 L923.15,356.43 L923.47,355.48 L924.13,354.44 L925.32,354.44 L925.66,358.38 L926.75,361.20 L928.77,362.27 L931.90,361.02 L932.76,360.10 L934.23,357.75 L935.18,356.73 L936.45,355.95 L943.63,353.44 L943.57,352.87 L942.85,351.16 L942.18,350.17 L941.26,349.44 L940.34,348.51 L939.67,346.88 L939.13,344.61 L937.95,341.54 L935.96,339.73 L932.99,341.20 L928.22,338.43 L925.85,337.93 L923.03,339.11 L922.05,338.02 L922.40,337.42 L923.03,335.82 L920.45,335.48 L913.51,333.00 L912.08,331.98 L910.40,330.17 L907.05,329.13 L904.56,327.72 L905.52,324.77 L908.15,323.52 L910.65,324.85 L912.91,326.96 L914.83,328.06 L916.55,328.61 L933.88,337.36 L955.47,345.28 L963.76,351.16 L965.65,354.19 L968.24,364.49 L971.06,370.94 L975.32,377.05 L980.21,380.86 L1000.00,388.50 L997.88,388.84 L992.47,388.53 L990.23,388.94 L986.00,390.83 L978.89,390.71 L978.23,390.83 L976.28,390.08 L975.10,389.28 L975.22,388.44 L977.13,387.53 L970.06,386.80 L967.31,386.98 L964.88,388.53 L964.05,386.40 L962.37,385.40 L960.31,384.61 L958.31,383.05 L956.77,385.83 L954.27,388.51 L951.02,390.39 L947.26,390.83 L945.78,390.04 L943.83,387.13 L942.98,386.34 L940.87,385.99 L939.26,386.17 L938.71,386.97 L939.79,388.53 L938.95,389.59 L938.69,390.58 L938.59,393.01 L937.02,391.60 L936.12,392.28 L935.91,394.15 L936.40,396.30 L935.50,395.87 L933.12,395.20 L933.47,395.69 L933.90,396.83 L934.22,397.39 L931.91,398.06 L927.91,401.15 L923.98,402.59 L923.20,404.32 L922.86,406.48 L922.17,408.44 L920.97,408.44 L919.61,406.76 L916.66,405.91 L913.10,405.72 L909.92,406.15 L906.92,407.53 L906.30,409.32 L907.82,413.92 L906.63,413.92 L906.03,412.55 L904.84,411.83 L903.18,411.61 L901.16,411.73 L901.49,414.22 L898.15,415.48 L889.21,416.02 L890.35,417.89 L891.14,418.68 L892.39,419.50 L889.43,419.52 L886.25,420.52 L883.39,422.06 L881.44,423.78 L880.51,422.63 L879.95,422.23 L879.32,422.05 L878.16,421.59 L878.95,423.10 L879.15,423.78 L877.09,423.24 L874.51,420.55 L872.58,419.50 L871.78,423.17 L871.75,424.65 L872.58,425.97 L856.72,426.79 L853.96,426.47 L853.65,425.23 L852.83,424.79 L850.12,424.87 L848.44,424.65 L847.83,424.09 L847.42,423.34 L843.74,421.08 L842.57,421.16 L840.81,422.59 L842.67,426.35 L843.78,427.82 L845.19,429.15 L845.19,430.35 L844.09,431.03 L843.41,430.96 L842.66,430.58 L841.31,430.35 L839.85,430.66 L839.03,431.33 L838.38,432.10 L837.43,432.64 L833.52,433.74 L831.16,433.92 L829.21,433.14 L825.42,429.18 L824.18,428.16 L822.74,427.36 L820.52,426.61 L818.50,426.76 L817.61,428.66 L818.44,436.19 L817.62,439.72 L814.33,441.40 L812.55,441.28 L808.65,440.43 L806.21,440.21 L804.99,439.36 L803.84,435.19 L802.27,433.64 L800.16,436.67 L797.93,440.72 L794.98,444.26 L788.99,446.30 L784.84,448.56 L783.06,449.06 L780.60,448.35 L778.93,446.95 L777.23,446.05 L774.80,446.78 L775.28,443.63 L775.89,442.50 L764.17,442.16 L760.56,441.40 L754.34,438.80 L751.27,438.48 L748.31,440.21 L745.89,434.71 L744.21,432.03 L740.93,429.87 L741.10,427.74 L740.65,425.80 L737.46,425.41 L737.55,425.10 L738.80,423.53 L739.30,423.07 L736.94,419.28 L733.42,416.72 L729.25,415.51 L725.03,415.68 L715.44,417.38 L712.81,418.87 L705.45,425.78 L702.58,427.77 Z" />
<path id="EP" title="El Paraíso" d="M609.73,541.70 L608.36,541.95 L604.84,543.08 L603.32,545.31 L601.76,546.88 L596.14,548.56 L596.66,550.24 L596.17,550.40 L595.73,550.39 L595.48,550.58 L595.56,551.33 L594.57,551.33 L593.20,550.94 L589.94,553.68 L587.90,554.62 L585.05,554.43 L583.39,554.06 L582.61,554.94 L582.42,558.45 L580.83,563.28 L580.16,566.37 L580.77,567.77 L583.17,568.50 L584.08,570.36 L583.74,572.84 L582.42,575.43 L581.31,576.42 L580.96,576.73 L580.86,576.69 L580.55,576.57 L578.42,574.23 L575.15,573.96 L571.41,574.08 L567.85,572.88 L565.30,569.85 L563.73,566.56 L561.85,563.78 L558.32,562.26 L556.14,562.40 L554.68,562.99 L553.20,563.29 L550.97,562.55 L549.89,561.57 L546.42,557.09 L535.09,549.07 L534.63,544.82 L536.36,541.37 L536.40,539.60 L524.13,541.37 L521.92,542.49 L520.12,544.08 L519.28,545.47 L518.65,547.01 L517.50,549.06 L515.63,550.97 L513.69,551.96 L511.80,552.67 L510.12,553.76 L504.58,562.18 L494.07,573.20 L491.53,577.11 L490.27,581.86 L489.34,584.28 L487.47,586.34 L485.08,587.48 L482.14,588.19 L473.85,588.71 L472.73,588.55 L471.22,588.07 L470.26,587.41 L467.74,584.87 L465.39,585.19 L463.23,586.30 L460.90,587.03 L458.06,586.24 L452.75,583.40 L446.41,583.76 L433.33,586.19 L426.33,585.34 L422.98,585.62 L419.34,587.41 L417.49,588.66 L416.73,589.31 L416.45,590.29 L416.08,592.52 L415.93,595.31 L415.81,595.36 L413.51,596.33 L412.23,596.55 L411.11,597.49 L409.83,599.48 L408.74,599.68 L407.51,599.63 L404.77,599.88 L403.47,600.36 L397.29,604.29 L396.64,603.12 L391.87,603.55 L391.07,603.20 L389.99,602.90 L389.63,603.44 L389.17,606.37 L388.44,607.88 L387.24,609.62 L384.68,612.32 L382.92,613.69 L381.67,614.47 L379.29,615.20 L377.52,616.82 L376.94,618.12 L376.56,620.53 L372.93,624.57 L368.01,627.36 L366.93,627.73 L364.95,627.48 L362.11,625.31 L360.75,622.28 L360.67,620.77 L359.32,619.75 L351.92,619.32 L349.65,618.02 L349.23,616.05 L348.53,613.01 L347.52,612.15 L346.12,610.65 L344.36,610.08 L343.26,608.02 L344.85,601.21 L349.91,599.60 L357.60,602.85 L358.33,602.98 L358.39,602.29 L358.84,599.53 L360.04,596.96 L361.31,595.24 L361.38,592.72 L359.56,589.42 L358.57,588.21 L358.11,586.52 L358.00,584.26 L358.10,581.98 L358.38,580.73 L358.65,580.13 L359.72,578.87 L362.13,579.97 L365.77,583.14 L367.07,583.78 L371.00,584.51 L373.52,584.48 L374.32,583.90 L376.98,580.46 L380.01,573.16 L380.66,565.79 L380.42,562.63 L380.84,560.56 L381.62,558.99 L381.75,557.62 L381.60,556.46 L380.94,554.14 L386.50,555.11 L389.12,553.75 L390.97,551.82 L392.70,548.56 L393.29,542.20 L392.97,540.42 L392.51,539.42 L391.29,538.75 L386.88,535.57 L382.70,530.04 L381.74,527.17 L385.15,525.85 L387.37,525.85 L389.93,526.33 L393.31,525.85 L394.96,522.62 L394.77,522.00 L394.16,521.24 L393.27,520.74 L391.95,520.39 L391.74,519.80 L392.06,518.99 L393.83,516.57 L395.76,511.56 L403.58,504.86 L406.63,499.52 L407.82,494.26 L413.08,489.36 L425.07,480.45 L431.95,483.25 L432.85,483.39 L434.45,483.24 L434.95,482.97 L435.47,482.76 L437.15,482.50 L437.76,482.60 L438.46,482.98 L440.08,484.80 L440.87,486.44 L441.47,487.10 L442.21,487.30 L443.40,487.09 L446.77,487.47 L455.76,489.91 L459.01,493.08 L459.59,493.45 L463.32,494.44 L466.31,496.60 L467.05,497.42 L467.80,498.48 L468.71,500.68 L469.48,501.32 L470.96,501.80 L482.78,502.50 L484.64,502.23 L485.78,501.77 L489.41,499.57 L490.93,498.18 L491.72,497.61 L492.64,497.21 L493.55,496.92 L495.26,495.89 L497.61,494.74 L500.70,493.88 L502.35,493.68 L506.50,493.73 L508.57,494.15 L509.97,494.86 L511.41,496.54 L515.70,504.10 L516.84,505.30 L521.39,506.96 L525.45,507.88 L526.79,507.79 L527.41,507.16 L527.98,505.82 L528.41,505.29 L528.97,504.85 L529.65,504.66 L530.35,504.68 L533.18,505.31 L534.90,506.19 L536.55,507.59 L538.56,510.80 L539.52,512.92 L540.13,515.11 L540.40,516.56 L541.17,517.81 L542.41,518.84 L548.56,521.57 L551.75,525.69 L553.59,527.14 L554.68,527.38 L556.86,527.29 L558.03,526.89 L558.87,526.29 L559.30,525.61 L559.47,524.89 L559.63,523.24 L559.90,522.48 L560.29,521.89 L560.85,521.42 L562.50,520.68 L563.22,520.24 L563.84,519.68 L564.53,519.24 L565.88,519.08 L567.44,519.35 L569.55,520.78 L571.13,521.57 L573.25,521.95 L574.23,521.71 L574.98,521.11 L576.86,517.39 L577.55,516.70 L578.55,516.56 L586.15,518.16 L592.24,520.04 L593.35,520.15 L593.84,519.98 L594.14,518.78 L594.92,518.60 L596.29,519.02 L598.80,521.12 L600.36,522.82 L601.33,524.81 L601.98,528.15 L601.98,530.03 L602.26,531.62 L602.88,532.85 L604.47,534.07 L605.77,534.78 L607.00,535.72 L607.72,536.42 L609.71,541.65 L609.73,541.70 Z" />
<path id="CH" title="Choluteca" d="M422.10,665.80 L420.95,666.57 L419.44,666.96 L417.94,666.49 L408.70,662.04 L405.94,661.81 L403.36,662.54 L401.24,663.96 L393.53,670.44 L392.24,672.01 L391.09,674.16 L389.93,678.68 L389.66,679.11 L389.96,680.04 L391.17,682.62 L391.46,683.02 L390.07,691.46 L390.48,692.47 L391.38,692.86 L392.01,693.44 L391.58,695.01 L390.77,695.84 L388.41,696.99 L387.49,697.69 L383.74,703.44 L381.91,705.36 L377.81,707.90 L374.47,709.50 L373.59,712.12 L371.70,711.99 L368.01,709.77 L365.64,709.53 L328.84,711.83 L328.90,711.79 L330.46,710.72 L330.96,708.67 L332.12,707.10 L333.84,705.95 L336.04,705.15 L336.04,704.15 L331.60,704.00 L328.41,703.38 L325.99,702.03 L323.90,699.68 L322.85,698.09 L322.62,697.24 L322.90,694.69 L323.92,694.31 L328.83,693.57 L330.46,693.10 L321.17,690.69 L315.92,690.13 L312.94,691.01 L311.94,691.01 L311.50,684.82 L309.31,678.49 L306.21,672.89 L303.08,668.90 L302.08,666.33 L301.88,666.21 L301.49,665.54 L300.55,665.60 L299.49,665.82 L298.69,665.62 L297.58,664.17 L297.04,662.88 L297.32,661.55 L298.69,660.04 L300.06,659.18 L302.75,657.96 L304.17,656.75 L307.38,652.31 L308.56,651.27 L310.73,651.76 L313.26,651.15 L318.41,649.19 L318.19,647.84 L318.20,646.90 L318.41,645.80 L318.41,645.78 L321.67,643.34 L323.42,639.41 L323.14,636.14 L321.35,632.75 L320.46,630.34 L320.23,628.85 L320.75,625.55 L315.00,621.35 L312.71,616.48 L312.52,615.41 L311.87,614.11 L311.14,612.93 L311.55,606.55 L310.83,605.47 L309.74,604.70 L308.39,604.02 L305.56,601.72 L305.24,601.36 L304.58,599.22 L304.55,596.92 L305.44,593.45 L305.82,589.29 L306.32,587.45 L308.09,586.90 L311.21,586.85 L313.08,587.35 L314.88,587.75 L315.60,587.59 L316.53,587.57 L317.18,587.74 L317.03,588.41 L315.88,591.13 L316.20,593.18 L319.28,596.13 L321.45,598.16 L327.97,597.40 L329.88,598.37 L331.46,599.09 L336.96,598.43 L344.85,601.21 L343.26,608.02 L344.36,610.08 L346.12,610.65 L347.52,612.15 L348.53,613.01 L349.23,616.05 L349.65,618.02 L351.92,619.32 L359.32,619.75 L360.67,620.77 L360.75,622.28 L362.11,625.31 L364.95,627.48 L366.93,627.73 L368.01,627.36 L372.93,624.57 L376.56,620.53 L376.94,618.12 L377.52,616.82 L379.29,615.20 L381.67,614.47 L382.92,613.69 L384.68,612.32 L387.24,609.62 L388.44,607.88 L389.17,606.37 L389.63,603.44 L389.99,602.90 L391.07,603.20 L391.87,603.55 L396.64,603.12 L397.29,604.29 L403.47,600.36 L404.77,599.88 L407.51,599.63 L408.74,599.68 L409.83,599.48 L411.11,597.49 L412.23,596.55 L413.51,596.33 L415.81,595.36 L415.93,595.31 L415.47,603.86 L415.77,605.31 L416.40,606.14 L417.06,606.63 L418.46,607.66 L419.07,608.70 L419.18,611.26 L418.18,616.40 L418.27,619.13 L423.45,638.38 L423.18,640.88 L421.14,645.31 L420.90,647.60 L421.51,649.20 L422.46,649.69 L423.56,649.94 L424.59,650.86 L425.75,652.90 L426.09,653.87 L427.05,658.47 L426.70,660.93 L425.45,663.04 L423.26,665.03 L422.10,665.80 Z" />
<path id="CR" title="Cortés" d="M180.03,277.60 L181.10,275.47 L180.97,273.72 L181.47,272.28 L183.35,271.60 L184.29,271.99 L191.56,277.01 L195.49,278.20 L199.72,276.38 L209.02,266.77 L212.97,264.34 L212.11,261.81 L213.72,261.30 L220.03,262.14 L229.39,256.66 L230.55,254.49 L230.89,252.91 L229.99,252.18 L228.20,251.68 L226.74,250.54 L226.08,249.41 L226.65,248.90 L233.43,248.76 L236.12,247.97 L238.75,246.16 L243.49,244.62 L257.28,243.70 L260.16,242.91 L261.09,240.65 L262.37,240.26 L262.88,244.06 L261.99,245.58 L260.42,246.52 L258.64,248.09 L257.71,249.60 L256.26,253.48 L255.09,255.10 L252.56,257.62 L251.70,259.05 L251.73,260.74 L254.16,263.45 L254.82,265.58 L256.11,265.24 L257.10,266.02 L257.63,267.52 L257.55,269.33 L256.61,270.96 L255.17,271.77 L252.87,272.35 L247.99,275.50 L247.10,277.07 L250.00,277.66 L247.71,280.27 L250.32,283.17 L254.51,286.43 L256.94,290.13 L256.55,290.66 L255.37,294.78 L255.49,295.33 L254.44,295.93 L253.30,295.79 L252.35,295.44 L251.85,295.35 L250.81,297.52 L250.15,300.14 L249.31,302.40 L247.68,303.46 L245.91,306.44 L246.47,308.69 L247.88,310.65 L248.70,312.76 L248.24,315.57 L246.96,315.34 L245.24,314.16 L243.44,314.15 L242.42,315.56 L243.50,316.49 L245.46,317.47 L247.06,319.04 L247.64,321.24 L247.05,322.55 L244.70,324.47 L240.77,330.84 L239.65,332.20 L239.02,332.67 L238.27,333.04 L236.82,334.14 L235.86,334.68 L233.73,335.25 L232.97,335.62 L232.70,336.13 L232.81,336.64 L233.02,337.16 L233.05,337.72 L232.63,338.47 L230.70,340.46 L230.96,341.52 L230.97,342.63 L230.74,343.73 L230.28,344.75 L230.59,346.45 L229.20,348.75 L229.90,349.95 L230.52,349.86 L231.46,349.44 L231.88,349.66 L232.03,349.87 L232.08,351.79 L231.53,354.07 L231.66,355.19 L231.15,356.74 L231.13,357.41 L231.88,357.89 L235.19,357.01 L238.25,357.24 L239.99,357.64 L242.36,359.43 L243.06,360.13 L243.48,360.86 L243.63,361.52 L244.05,362.28 L244.95,362.41 L247.32,362.37 L248.01,362.67 L248.56,363.19 L249.11,363.36 L250.91,363.41 L251.43,364.08 L251.83,365.62 L252.73,365.96 L253.54,366.06 L256.06,365.61 L260.76,370.19 L260.93,371.24 L261.57,372.88 L261.73,374.15 L261.76,374.95 L261.50,375.55 L260.91,375.96 L260.49,377.13 L260.30,378.16 L261.16,385.36 L261.17,390.62 L260.39,394.03 L257.74,396.37 L250.46,401.57 L247.43,403.00 L243.87,403.83 L243.27,404.25 L239.74,407.78 L237.45,410.76 L224.73,419.53 L223.01,418.42 L221.95,416.87 L221.07,414.26 L220.73,407.65 L219.49,403.92 L214.46,399.49 L210.94,399.38 L210.19,399.12 L209.69,396.53 L210.84,389.79 L211.73,388.45 L213.86,381.19 L215.88,379.06 L215.21,377.91 L214.13,377.49 L213.01,376.47 L211.89,375.94 L208.31,374.75 L203.70,371.81 L201.79,369.69 L200.58,367.02 L201.45,363.98 L208.02,357.16 L208.92,354.69 L205.72,353.72 L203.63,352.40 L202.40,351.45 L198.93,344.58 L197.78,328.99 L197.24,328.18 L193.29,327.43 L191.66,326.71 L189.50,325.27 L187.08,323.30 L182.35,320.55 L181.30,319.49 L180.59,318.48 L180.27,317.56 L180.10,316.62 L180.18,315.48 L180.56,313.58 L180.50,312.74 L180.18,311.25 L180.32,309.92 L180.14,309.29 L179.04,308.41 L176.76,307.16 L161.59,302.61 L153.03,301.31 L143.90,304.47 L143.80,304.48 L154.78,296.13 L162.23,289.05 L167.08,280.97 L167.99,279.79 L171.37,279.73 L173.92,278.81 L176.28,277.55 L179.04,276.41 L180.03,277.60 Z" />
<path id="SB" title="Santa Bárbara" d="M96.72,339.90 L110.63,329.45 L124.56,318.99 L138.57,308.45 L143.80,304.48 L143.90,304.47 L153.03,301.31 L161.59,302.61 L176.76,307.16 L179.04,308.41 L180.14,309.29 L180.32,309.92 L180.18,311.25 L180.50,312.74 L180.56,313.58 L180.18,315.48 L180.10,316.62 L180.27,317.56 L180.59,318.48 L181.30,319.49 L182.35,320.55 L187.08,323.30 L189.50,325.27 L191.66,326.71 L193.29,327.43 L197.24,328.18 L197.78,328.99 L198.93,344.58 L202.40,351.45 L203.63,352.40 L205.72,353.72 L208.92,354.69 L208.02,357.16 L201.45,363.98 L200.58,367.02 L201.79,369.69 L203.70,371.81 L208.31,374.75 L211.89,375.94 L213.01,376.47 L214.13,377.49 L215.21,377.91 L215.88,379.06 L213.86,381.19 L211.73,388.45 L210.84,389.79 L209.69,396.53 L210.19,399.12 L210.94,399.38 L214.46,399.49 L219.49,403.92 L220.73,407.65 L221.07,414.26 L220.87,421.29 L215.18,422.30 L210.29,427.26 L209.42,427.81 L207.59,428.57 L206.79,429.33 L206.38,430.49 L206.30,432.72 L207.30,434.40 L208.80,438.45 L206.76,441.79 L203.81,443.45 L202.68,444.28 L197.99,443.84 L192.60,442.78 L185.51,443.40 L176.12,444.36 L163.64,443.48 L167.09,437.92 L167.97,433.01 L166.91,431.14 L164.93,431.38 L162.24,431.04 L159.91,429.81 L157.34,425.59 L156.41,424.56 L160.95,417.02 L157.66,415.10 L153.37,415.19 L151.37,412.47 L151.02,412.11 L149.22,411.35 L147.82,411.46 L146.02,413.17 L144.40,415.70 L141.84,417.79 L140.61,418.19 L137.67,414.58 L133.25,407.53 L129.74,398.48 L122.26,397.37 L121.05,398.01 L115.38,399.67 L109.72,400.70 L108.76,400.38 L107.70,399.74 L107.23,398.84 L106.88,397.83 L106.51,397.08 L106.13,395.66 L108.19,390.40 L109.80,384.89 L110.07,382.01 L111.47,378.97 L115.38,375.66 L115.74,374.52 L115.70,373.34 L115.32,372.41 L114.03,370.47 L113.32,369.66 L112.28,365.63 L114.24,363.14 L114.08,362.58 L113.76,361.90 L112.47,361.02 L109.84,359.84 L106.54,356.45 L103.60,353.18 L103.84,350.97 L104.06,349.95 L103.96,348.67 L97.18,340.59 L96.72,339.90 Z" />
<path id="CP" title="Copán" d="M34.79,376.58 L35.82,375.76 L40.74,373.35 L57.03,368.06 L62.63,365.49 L82.90,350.27 L96.72,339.90 L97.18,340.59 L103.96,348.67 L104.06,349.95 L103.84,350.97 L103.60,353.18 L106.54,356.45 L109.84,359.84 L112.47,361.02 L113.76,361.90 L114.08,362.58 L114.24,363.14 L112.28,365.63 L113.32,369.66 L114.03,370.47 L115.32,372.41 L115.70,373.34 L115.74,374.52 L115.38,375.66 L111.47,378.97 L110.07,382.01 L109.80,384.89 L108.19,390.40 L106.13,395.66 L106.51,397.08 L106.88,397.83 L107.23,398.84 L107.70,399.74 L108.76,400.38 L109.72,400.70 L115.38,399.67 L116.23,404.74 L115.58,408.99 L113.45,410.51 L113.74,412.24 L113.41,412.95 L112.25,414.34 L111.38,415.15 L110.69,416.37 L110.29,417.69 L110.05,419.80 L110.21,422.19 L111.29,423.96 L112.94,427.55 L113.63,430.45 L113.71,431.37 L113.56,432.32 L112.31,432.44 L107.77,433.73 L101.97,434.14 L93.96,433.22 L91.60,433.98 L91.30,436.37 L91.39,437.04 L93.13,441.12 L98.02,445.65 L99.18,447.33 L101.10,450.71 L101.59,460.41 L97.78,460.73 L94.65,460.22 L93.37,460.21 L91.89,460.44 L90.35,460.85 L87.71,461.82 L86.54,462.59 L86.00,463.83 L86.02,465.74 L86.08,466.40 L86.46,466.90 L86.59,467.43 L86.17,467.70 L84.54,468.18 L82.56,467.80 L80.63,466.22 L78.45,465.68 L75.58,464.50 L72.81,461.67 L70.68,458.40 L70.42,457.21 L70.51,453.01 L69.50,450.81 L59.23,443.26 L57.87,440.98 L56.71,436.15 L54.25,432.81 L44.64,431.51 L42.53,432.22 L37.34,433.73 L34.91,434.40 L34.21,433.37 L32.75,432.12 L31.00,429.92 L27.98,422.83 L26.47,420.41 L23.23,416.62 L21.84,414.56 L21.07,412.32 L21.23,409.30 L22.49,407.43 L26.47,404.09 L28.01,401.97 L29.24,400.26 L31.23,395.71 L31.23,391.48 L28.11,388.64 L30.65,381.25 L32.56,378.35 L34.79,376.58 Z" />
<path id="CL" title="Colón" d="M469.40,261.14 L473.12,263.46 L475.63,264.10 L479.53,264.34 L482.70,263.85 L485.37,262.66 L500.62,253.48 L504.59,249.24 L506.41,247.80 L511.96,245.63 L517.54,244.33 L540.47,243.52 L542.49,242.96 L544.11,242.16 L550.35,237.75 L553.73,234.12 L555.18,230.24 L552.61,226.99 L542.45,225.58 L537.60,224.39 L538.37,222.60 L542.56,222.27 L554.96,224.64 L563.55,226.19 L569.57,226.86 L577.13,228.94 L584.67,230.84 L587.26,231.37 L589.05,232.16 L589.47,234.00 L589.44,236.18 L589.86,237.94 L591.05,237.94 L590.97,236.86 L591.29,236.35 L591.78,236.08 L592.15,235.75 L594.80,235.81 L596.22,237.87 L599.07,240.10 L602.46,242.50 L609.58,245.42 L621.69,248.51 L630.06,247.84 L642.00,246.66 L659.28,246.19 L668.57,242.44 L680.21,234.24 L687.91,229.80 L700.08,229.52 L700.08,376.99 L690.50,366.03 L685.20,361.26 L662.75,351.65 L660.08,350.05 L650.80,339.04 L642.25,326.88 L636.55,322.41 L619.02,315.91 L602.58,302.21 L589.65,295.42 L586.27,294.72 L584.91,295.45 L583.31,296.04 L582.02,296.27 L580.46,295.64 L579.37,294.73 L578.29,294.28 L577.48,294.17 L573.93,295.88 L574.21,297.37 L573.68,298.53 L572.41,299.99 L568.96,302.69 L565.81,304.60 L564.05,304.50 L562.17,303.31 L561.10,302.94 L560.00,302.77 L558.90,303.22 L558.16,304.10 L554.22,310.33 L544.47,319.57 L535.23,324.40 L534.56,325.39 L533.50,325.39 L532.34,324.88 L531.04,324.51 L529.48,324.38 L526.60,324.78 L525.18,325.38 L522.51,325.88 L519.48,327.34 L515.81,328.18 L512.11,327.36 L502.28,322.28 L502.03,318.06 L500.97,315.93 L500.87,315.12 L501.85,307.91 L501.56,305.79 L501.10,304.46 L500.62,304.03 L499.92,303.93 L499.51,304.16 L499.26,304.58 L499.07,304.80 L498.85,304.79 L498.63,304.57 L498.29,304.32 L497.90,304.15 L497.37,304.07 L496.92,303.91 L496.47,303.59 L495.92,302.94 L495.47,302.56 L495.06,302.33 L494.60,302.14 L494.24,302.06 L493.31,302.09 L489.25,301.10 L481.56,301.40 L479.91,301.28 L479.10,301.00 L478.72,300.39 L476.88,298.23 L472.11,294.52 L475.63,292.48 L479.40,291.05 L480.93,289.58 L481.62,287.50 L481.58,283.91 L481.34,280.18 L480.93,279.64 L480.37,279.10 L479.34,279.20 L478.75,279.17 L477.90,278.75 L476.38,278.22 L475.89,277.37 L474.07,273.44 L472.63,272.04 L470.32,270.18 L469.32,268.99 L468.81,267.69 L468.53,265.43 L468.30,264.45 L468.03,263.61 L467.89,263.03 L468.04,262.66 L468.28,262.53 L469.42,262.47 L469.40,261.14 Z" />
<path id="AT" title="Atlántida" d="M262.37,240.26 L263.36,239.96 L266.22,240.31 L268.92,241.23 L276.05,245.36 L278.78,245.61 L278.78,244.60 L277.14,243.07 L278.79,241.24 L284.36,237.94 L281.29,242.01 L280.19,244.50 L281.58,245.61 L282.46,246.72 L297.46,259.89 L302.31,261.92 L307.45,260.94 L308.35,260.04 L309.98,257.44 L310.74,256.66 L312.30,256.54 L316.46,256.72 L317.32,256.07 L318.26,253.34 L320.66,251.92 L323.86,251.60 L340.43,255.28 L354.88,260.18 L369.75,261.76 L386.84,265.56 L392.55,266.03 L398.67,265.43 L408.52,262.58 L411.36,262.14 L411.81,261.67 L414.48,259.64 L415.10,259.36 L416.01,258.63 L417.97,259.30 L419.89,260.38 L420.68,260.94 L427.49,261.50 L458.82,258.86 L464.15,259.00 L469.07,260.94 L469.40,261.14 L469.42,262.47 L468.28,262.53 L468.04,262.66 L467.89,263.03 L468.03,263.61 L468.30,264.45 L468.53,265.43 L468.81,267.69 L469.32,268.99 L470.32,270.18 L472.63,272.04 L474.07,273.44 L475.89,277.37 L476.38,278.22 L477.90,278.75 L478.75,279.17 L479.34,279.20 L480.37,279.10 L480.93,279.64 L481.34,280.18 L481.58,283.91 L481.62,287.50 L480.93,289.58 L479.40,291.05 L475.63,292.48 L472.11,294.52 L468.61,293.02 L464.18,292.33 L460.13,292.81 L458.98,293.07 L457.94,293.46 L456.59,293.69 L455.20,293.57 L453.52,292.91 L451.93,292.68 L446.06,293.04 L440.31,291.48 L437.57,291.02 L435.69,291.37 L432.23,292.44 L428.85,293.89 L422.19,297.51 L418.17,298.88 L414.68,299.67 L409.70,299.69 L407.30,299.96 L404.28,299.30 L402.35,296.69 L390.91,299.67 L383.65,299.50 L380.72,299.97 L374.67,305.10 L372.07,307.96 L370.53,309.16 L367.65,310.75 L357.20,314.41 L352.33,317.75 L350.71,319.12 L349.95,319.59 L343.33,319.49 L331.91,316.87 L330.25,316.89 L328.74,316.64 L327.25,315.60 L325.41,314.95 L324.23,314.79 L323.15,315.09 L322.31,315.66 L321.36,315.93 L320.68,316.52 L319.74,316.95 L318.94,317.23 L317.94,317.08 L317.10,316.84 L314.72,315.75 L313.36,314.88 L312.37,314.10 L311.18,312.65 L310.11,310.91 L309.25,306.90 L309.16,304.85 L308.88,303.16 L306.13,301.40 L304.66,301.28 L303.83,301.59 L297.58,305.01 L295.26,304.74 L288.52,306.50 L281.36,307.09 L278.86,306.07 L272.47,299.21 L271.94,298.40 L271.49,297.43 L270.61,292.48 L270.45,290.14 L268.97,284.59 L267.26,281.54 L264.58,280.19 L252.87,272.35 L255.17,271.77 L256.61,270.96 L257.55,269.33 L257.63,267.52 L257.10,266.02 L256.11,265.24 L254.82,265.58 L254.16,263.45 L251.73,260.74 L251.70,259.05 L252.56,257.62 L255.09,255.10 L256.26,253.48 L257.71,249.60 L258.64,248.09 L260.42,246.52 L261.99,245.58 L262.88,244.06 L262.37,240.26 Z" />
<path id="IB" title="Bay Islands" d="M398.67,207.17 L399.66,208.18 L398.28,210.82 L398.67,212.64 L395.65,212.54 L393.14,213.13 L388.81,214.84 L385.04,216.94 L382.60,215.11 L379.63,214.12 L381.02,212.27 L388.16,208.90 L392.31,208.01 L394.63,207.67 L396.78,207.08 L398.67,207.17 Z M442.34,181.86 L443.49,177.97 L448.13,174.26 L454.51,170.45 L459.43,168.41 L468.99,163.97 L479.41,160.64 L486.36,158.69 L491.19,158.14 L497.56,158.51 L502.57,158.79 L510.49,158.89 L507.20,159.81 L503.73,161.48 L500.64,160.55 L495.82,161.66 L492.42,160.97 L489.57,161.41 L488.48,161.92 L486.27,163.35 L485.28,163.76 L483.85,163.82 L481.54,164.34 L478.64,166.38 L472.75,169.16 L466.96,171.20 L460.87,175.37 L455.38,177.02 L451.71,177.40 L449.20,179.72 L446.49,182.23 L443.31,184.36 L442.34,181.86 Z M553.85,153.47 L556.40,149.18 L558.23,146.92 L563.53,144.61 L566.58,145.69 L569.01,147.65 L568.19,149.60 L564.63,149.98 L563.81,152.32 L561.67,155.04 L558.52,155.23 L556.38,157.56 L548.14,162.91 L547.53,161.44 L549.16,158.62 L551.41,154.63 L553.85,153.47 Z M869.94,0.00 L871.15,0.12 L872.35,0.37 L873.50,0.74 L874.56,1.21 L873.02,1.53 L871.68,1.48 L870.63,0.98 L869.94,0.00 Z" />
<path id="CM" title="Comayagua" d="M206.76,441.79 L208.80,438.45 L207.30,434.40 L206.30,432.72 L206.38,430.49 L206.79,429.33 L207.59,428.57 L209.42,427.81 L210.29,427.26 L215.18,422.30 L220.87,421.29 L221.07,414.26 L221.95,416.87 L223.01,418.42 L224.73,419.53 L237.45,410.76 L239.74,407.78 L243.27,404.25 L243.87,403.83 L247.43,403.00 L250.46,401.57 L257.74,396.37 L260.39,394.03 L261.17,390.62 L261.16,385.36 L276.17,385.14 L277.96,385.35 L284.98,383.80 L285.55,382.44 L290.22,379.09 L290.77,378.87 L291.26,378.77 L292.01,378.95 L292.98,379.34 L295.04,380.72 L296.30,381.97 L297.97,384.38 L298.48,385.79 L298.93,387.77 L299.22,388.47 L299.57,389.07 L300.35,389.74 L301.14,390.29 L302.67,390.81 L303.31,391.19 L303.96,392.09 L304.82,392.51 L305.31,393.49 L305.51,394.27 L305.38,395.77 L305.40,396.52 L305.62,397.42 L306.12,398.56 L306.29,399.26 L306.74,400.25 L306.75,400.63 L306.70,401.05 L306.70,401.42 L307.11,401.83 L307.94,402.32 L309.66,402.66 L312.06,402.69 L316.00,400.72 L319.11,397.83 L322.96,398.08 L328.70,399.57 L329.40,399.92 L330.63,400.92 L331.54,401.39 L332.41,401.12 L333.46,400.18 L334.46,400.37 L335.47,400.65 L339.78,404.42 L342.58,405.67 L343.17,406.15 L344.02,407.03 L344.20,408.19 L345.79,410.56 L343.19,412.49 L339.84,412.80 L339.37,412.95 L338.89,413.40 L338.39,414.23 L337.95,415.79 L337.79,418.29 L338.53,420.79 L339.20,426.23 L338.24,430.00 L336.50,434.41 L336.38,435.10 L336.54,435.34 L336.53,435.64 L336.21,436.02 L335.02,436.83 L334.23,437.21 L333.48,437.49 L332.89,437.64 L332.38,437.86 L330.97,438.89 L330.08,439.18 L329.48,439.26 L329.12,439.47 L328.95,439.93 L328.87,440.92 L328.67,441.34 L328.09,441.50 L327.79,441.29 L327.54,441.02 L327.29,440.86 L327.07,441.02 L326.95,441.60 L327.21,442.81 L327.32,443.73 L327.32,444.60 L326.73,446.81 L324.33,450.94 L322.55,450.84 L321.90,450.71 L321.25,450.50 L320.73,450.26 L320.52,449.95 L320.34,449.30 L320.12,449.05 L319.68,449.00 L319.19,449.02 L318.62,449.00 L317.95,448.85 L317.23,448.56 L316.55,448.19 L315.82,447.94 L315.26,447.90 L314.73,448.23 L314.45,448.87 L314.50,451.25 L314.40,452.17 L314.19,453.06 L314.08,453.86 L312.63,456.76 L304.47,464.67 L304.94,467.14 L305.34,468.40 L306.01,469.90 L306.85,471.06 L309.39,472.71 L313.14,475.94 L313.61,476.54 L313.93,477.29 L313.86,478.83 L313.47,479.49 L312.93,479.94 L313.06,480.45 L313.33,480.88 L317.25,483.85 L317.81,485.03 L316.14,488.44 L311.93,493.98 L311.11,494.54 L309.90,494.98 L307.93,494.03 L307.00,493.88 L306.27,493.92 L305.54,494.21 L305.09,495.14 L304.80,496.85 L305.09,503.18 L305.44,504.84 L305.97,505.81 L306.93,506.84 L307.84,507.66 L308.56,508.14 L309.10,508.39 L309.64,508.56 L310.01,508.76 L310.25,509.05 L310.73,510.05 L310.92,510.75 L310.96,511.70 L310.29,512.71 L309.10,513.33 L304.91,514.24 L301.74,516.18 L300.04,519.59 L299.92,520.46 L298.90,521.70 L296.98,522.84 L292.39,524.90 L287.24,525.45 L286.24,525.42 L285.25,525.93 L284.01,526.99 L280.66,530.94 L280.52,534.25 L274.84,534.80 L272.76,536.30 L268.58,540.26 L268.41,534.84 L267.47,533.18 L266.33,531.73 L264.62,530.83 L261.80,528.49 L260.05,527.48 L258.24,526.79 L256.61,526.48 L253.93,525.49 L253.35,524.91 L253.15,524.29 L253.39,523.48 L253.75,522.83 L254.55,520.31 L252.30,517.74 L246.76,515.47 L246.27,512.30 L246.74,511.19 L247.09,510.96 L247.55,510.88 L247.81,510.89 L248.75,511.28 L254.75,509.84 L257.96,510.11 L260.49,509.75 L262.48,509.28 L265.94,508.06 L267.43,507.36 L269.53,505.82 L271.95,506.15 L274.47,505.62 L275.89,505.07 L276.63,504.54 L278.16,502.62 L278.69,500.55 L277.36,499.30 L278.44,497.58 L277.88,494.48 L277.43,493.23 L275.49,489.12 L274.75,488.54 L267.54,491.42 L266.23,491.06 L264.52,490.93 L261.26,489.79 L259.53,488.88 L254.64,487.93 L254.17,487.75 L252.68,486.22 L252.55,485.90 L246.20,484.22 L244.00,481.98 L242.36,479.61 L243.01,479.01 L243.15,478.64 L243.21,478.15 L243.14,477.58 L241.92,475.30 L236.77,468.95 L234.87,467.19 L235.03,465.68 L234.98,464.06 L234.40,463.37 L233.39,462.58 L229.50,460.70 L228.26,459.72 L227.23,457.74 L226.87,456.71 L226.71,455.05 L226.55,454.45 L225.24,452.04 L223.74,450.09 L220.82,449.06 L218.11,447.12 L212.58,445.72 L211.37,445.58 L209.78,445.10 L208.95,444.73 L206.76,441.79 Z" />
<path id="YO" title="Yoro" d="M252.87,272.35 L264.58,280.19 L267.26,281.54 L268.97,284.59 L270.45,290.14 L270.61,292.48 L271.49,297.43 L271.94,298.40 L272.47,299.21 L278.86,306.07 L281.36,307.09 L288.52,306.50 L295.26,304.74 L297.58,305.01 L303.83,301.59 L304.66,301.28 L306.13,301.40 L308.88,303.16 L309.16,304.85 L309.25,306.90 L310.11,310.91 L311.18,312.65 L312.37,314.10 L313.36,314.88 L314.72,315.75 L317.10,316.84 L317.94,317.08 L318.94,317.23 L319.74,316.95 L320.68,316.52 L321.36,315.93 L322.31,315.66 L323.15,315.09 L324.23,314.79 L325.41,314.95 L327.25,315.60 L328.74,316.64 L330.25,316.89 L331.91,316.87 L343.33,319.49 L349.95,319.59 L350.71,319.12 L352.33,317.75 L357.20,314.41 L367.65,310.75 L370.53,309.16 L372.07,307.96 L374.67,305.10 L380.72,299.97 L383.65,299.50 L390.91,299.67 L402.35,296.69 L404.28,299.30 L407.30,299.96 L409.70,299.69 L414.68,299.67 L418.17,298.88 L422.19,297.51 L428.85,293.89 L432.23,292.44 L435.69,291.37 L437.57,291.02 L440.31,291.48 L446.06,293.04 L451.93,292.68 L453.52,292.91 L455.20,293.57 L456.59,293.69 L457.94,293.46 L458.98,293.07 L460.13,292.81 L464.18,292.33 L468.61,293.02 L472.11,294.52 L476.88,298.23 L478.72,300.39 L479.10,301.00 L479.91,301.28 L481.56,301.40 L489.25,301.10 L493.31,302.09 L494.24,302.06 L494.60,302.14 L495.06,302.33 L495.47,302.56 L495.92,302.94 L496.47,303.59 L496.92,303.91 L497.37,304.07 L497.90,304.15 L498.29,304.32 L498.63,304.57 L498.85,304.79 L499.07,304.80 L499.26,304.58 L499.51,304.16 L499.92,303.93 L500.62,304.03 L501.10,304.46 L501.56,305.79 L501.85,307.91 L500.87,315.12 L500.97,315.93 L502.03,318.06 L502.28,322.28 L495.10,327.29 L493.04,327.99 L484.13,333.22 L479.97,335.17 L477.84,335.40 L474.01,335.35 L472.20,334.77 L471.21,333.98 L470.71,333.02 L469.94,331.89 L468.61,330.51 L467.13,329.24 L465.09,327.91 L462.77,326.68 L458.94,325.56 L457.17,325.57 L455.17,326.05 L441.57,333.23 L440.37,333.67 L439.52,333.61 L438.77,333.41 L438.10,333.33 L437.26,333.92 L436.67,334.87 L435.07,338.94 L433.80,340.44 L432.74,342.73 L431.15,343.21 L429.53,344.39 L428.51,344.92 L427.24,345.20 L424.34,345.21 L422.59,344.91 L421.23,344.56 L416.32,340.64 L408.85,342.24 L408.46,343.54 L407.10,344.52 L406.54,344.74 L404.14,345.98 L403.05,346.21 L402.39,346.68 L401.86,347.33 L401.35,349.51 L401.21,350.81 L402.46,360.48 L401.20,363.21 L401.16,363.70 L401.26,364.34 L401.28,364.95 L400.95,365.88 L399.83,367.60 L399.14,369.07 L398.75,370.19 L398.63,371.24 L398.60,372.25 L398.36,373.49 L397.48,374.93 L395.10,376.54 L391.89,379.36 L387.04,380.64 L385.77,380.40 L385.07,380.38 L384.10,380.99 L383.50,381.51 L381.23,385.47 L375.84,384.32 L367.23,384.67 L364.77,383.99 L363.48,383.36 L361.62,382.99 L360.07,382.90 L352.42,383.85 L349.57,386.19 L349.66,387.85 L349.45,391.15 L349.23,392.09 L348.70,392.97 L345.50,395.68 L343.88,398.00 L342.87,400.22 L339.78,404.42 L335.47,400.65 L334.46,400.37 L333.46,400.18 L332.41,401.12 L331.54,401.39 L330.63,400.92 L329.40,399.92 L328.70,399.57 L322.96,398.08 L319.11,397.83 L316.00,400.72 L312.06,402.69 L309.66,402.66 L307.94,402.32 L307.11,401.83 L306.70,401.42 L306.70,401.05 L306.75,400.63 L306.74,400.25 L306.29,399.26 L306.12,398.56 L305.62,397.42 L305.40,396.52 L305.38,395.77 L305.51,394.27 L305.31,393.49 L304.82,392.51 L303.96,392.09 L303.31,391.19 L302.67,390.81 L301.14,390.29 L300.35,389.74 L299.57,389.07 L299.22,388.47 L298.93,387.77 L298.48,385.79 L297.97,384.38 L296.30,381.97 L295.04,380.72 L292.98,379.34 L292.01,378.95 L291.26,378.77 L290.77,378.87 L290.22,379.09 L285.55,382.44 L284.98,383.80 L277.96,385.35 L276.17,385.14 L261.16,385.36 L260.30,378.16 L260.49,377.13 L260.91,375.96 L261.50,375.55 L261.76,374.95 L261.73,374.15 L261.57,372.88 L260.93,371.24 L260.76,370.19 L256.06,365.61 L253.54,366.06 L252.73,365.96 L251.83,365.62 L251.43,364.08 L250.91,363.41 L249.11,363.36 L248.56,363.19 L248.01,362.67 L247.32,362.37 L244.95,362.41 L244.05,362.28 L243.63,361.52 L243.48,360.86 L243.06,360.13 L242.36,359.43 L239.99,357.64 L238.25,357.24 L235.19,357.01 L231.88,357.89 L231.13,357.41 L231.15,356.74 L231.66,355.19 L231.53,354.07 L232.08,351.79 L232.03,349.87 L231.88,349.66 L231.46,349.44 L230.52,349.86 L229.90,349.95 L229.20,348.75 L230.59,346.45 L230.28,344.75 L230.74,343.73 L230.97,342.63 L230.96,341.52 L230.70,340.46 L232.63,338.47 L233.05,337.72 L233.02,337.16 L232.81,336.64 L232.70,336.13 L232.97,335.62 L233.73,335.25 L235.86,334.68 L236.82,334.14 L238.27,333.04 L239.02,332.67 L239.65,332.20 L240.77,330.84 L244.70,324.47 L247.05,322.55 L247.64,321.24 L247.06,319.04 L245.46,317.47 L243.50,316.49 L242.42,315.56 L243.44,314.15 L245.24,314.16 L246.96,315.34 L248.24,315.57 L248.70,312.76 L247.88,310.65 L246.47,308.69 L245.91,306.44 L247.68,303.46 L249.31,302.40 L250.15,300.14 L250.81,297.52 L251.85,295.35 L252.35,295.44 L253.30,295.79 L254.44,295.93 L255.49,295.33 L255.37,294.78 L256.55,290.66 L256.94,290.13 L254.51,286.43 L250.32,283.17 L247.71,280.27 L250.00,277.66 L247.10,277.07 L247.99,275.50 L252.87,272.35 Z" />
<path id="FM" title="Francisco Morazán" d="M328.09,441.50 L328.67,441.34 L328.87,440.92 L328.95,439.93 L329.12,439.47 L329.48,439.26 L330.08,439.18 L330.97,438.89 L332.38,437.86 L332.89,437.64 L333.48,437.49 L334.23,437.21 L335.02,436.83 L336.21,436.02 L336.53,435.64 L336.54,435.34 L336.38,435.10 L336.50,434.41 L338.24,430.00 L339.20,426.23 L338.53,420.79 L337.79,418.29 L337.95,415.79 L338.39,414.23 L338.89,413.40 L339.37,412.95 L339.84,412.80 L343.19,412.49 L345.79,410.56 L344.20,408.19 L344.02,407.03 L343.17,406.15 L342.58,405.67 L339.78,404.42 L342.87,400.22 L343.88,398.00 L345.50,395.68 L348.70,392.97 L349.23,392.09 L349.45,391.15 L349.66,387.85 L349.57,386.19 L352.42,383.85 L360.07,382.90 L361.62,382.99 L363.48,383.36 L364.77,383.99 L367.23,384.67 L375.84,384.32 L381.23,385.47 L381.62,387.25 L382.27,388.32 L383.92,390.29 L385.37,391.66 L389.14,393.59 L390.98,395.48 L393.30,396.66 L393.92,397.18 L394.28,397.62 L392.77,398.84 L391.48,403.19 L389.92,404.49 L390.88,407.87 L391.46,409.02 L392.53,410.75 L393.27,412.45 L393.67,416.78 L394.11,418.51 L395.34,420.25 L396.65,426.17 L401.65,438.14 L403.55,441.61 L405.70,443.92 L407.12,445.05 L410.24,445.80 L411.73,447.32 L417.32,452.38 L420.33,456.14 L420.22,459.01 L419.55,461.58 L419.72,462.94 L420.11,464.44 L421.78,467.01 L422.36,468.17 L422.64,470.59 L423.15,472.79 L425.17,478.21 L425.07,480.45 L413.08,489.36 L407.82,494.26 L406.63,499.52 L403.58,504.86 L395.76,511.56 L393.83,516.57 L392.06,518.99 L391.74,519.80 L391.95,520.39 L393.27,520.74 L394.16,521.24 L394.77,522.00 L394.96,522.62 L393.31,525.85 L389.93,526.33 L387.37,525.85 L385.15,525.85 L381.74,527.17 L382.70,530.04 L386.88,535.57 L391.29,538.75 L392.51,539.42 L392.97,540.42 L393.29,542.20 L392.70,548.56 L390.97,551.82 L389.12,553.75 L386.50,555.11 L380.94,554.14 L381.60,556.46 L381.75,557.62 L381.62,558.99 L380.84,560.56 L380.42,562.63 L380.66,565.79 L380.01,573.16 L376.98,580.46 L374.32,583.90 L373.52,584.48 L371.00,584.51 L367.07,583.78 L365.77,583.14 L362.13,579.97 L359.72,578.87 L358.65,580.13 L358.38,580.73 L358.10,581.98 L358.00,584.26 L358.11,586.52 L358.57,588.21 L359.56,589.42 L361.38,592.72 L361.31,595.24 L360.04,596.96 L358.84,599.53 L358.39,602.29 L358.33,602.98 L357.60,602.85 L349.91,599.60 L344.85,601.21 L336.96,598.43 L331.46,599.09 L329.88,598.37 L327.97,597.40 L321.45,598.16 L319.28,596.13 L316.20,593.18 L315.88,591.13 L317.03,588.41 L317.18,587.74 L316.53,587.57 L315.60,587.59 L314.88,587.75 L313.08,587.35 L311.21,586.85 L308.09,586.90 L306.32,587.45 L305.82,589.29 L305.44,593.45 L304.55,596.92 L304.58,599.22 L305.24,601.36 L304.01,602.05 L302.37,601.61 L298.18,599.04 L292.47,594.81 L291.99,594.24 L291.24,593.80 L290.66,593.57 L287.72,593.86 L282.80,592.94 L276.25,588.57 L275.04,586.75 L275.38,579.76 L275.41,575.04 L279.85,569.49 L281.11,565.74 L281.54,565.10 L281.99,564.02 L283.23,558.36 L283.51,555.30 L280.52,534.25 L280.66,530.94 L284.01,526.99 L285.25,525.93 L286.24,525.42 L287.24,525.45 L292.39,524.90 L296.98,522.84 L298.90,521.70 L299.92,520.46 L300.04,519.59 L301.74,516.18 L304.91,514.24 L309.10,513.33 L310.29,512.71 L310.96,511.70 L310.92,510.75 L310.73,510.05 L310.25,509.05 L310.01,508.76 L309.64,508.56 L309.10,508.39 L308.56,508.14 L307.84,507.66 L306.93,506.84 L305.97,505.81 L305.44,504.84 L305.09,503.18 L304.80,496.85 L305.09,495.14 L305.54,494.21 L306.27,493.92 L307.00,493.88 L307.93,494.03 L309.90,494.98 L311.11,494.54 L311.93,493.98 L316.14,488.44 L317.81,485.03 L317.25,483.85 L313.33,480.88 L313.06,480.45 L312.93,479.94 L313.47,479.49 L313.86,478.83 L313.93,477.29 L313.61,476.54 L313.14,475.94 L309.39,472.71 L306.85,471.06 L306.01,469.90 L305.34,468.40 L304.94,467.14 L304.47,464.67 L312.63,456.76 L314.08,453.86 L314.19,453.06 L314.40,452.17 L314.50,451.25 L314.45,448.87 L314.73,448.23 L315.26,447.90 L315.82,447.94 L316.55,448.19 L317.23,448.56 L317.95,448.85 L318.62,449.00 L319.19,449.02 L319.68,449.00 L320.12,449.05 L320.34,449.30 L320.52,449.95 L320.73,450.26 L321.25,450.50 L321.90,450.71 L322.55,450.84 L324.33,450.94 L326.73,446.81 L327.32,444.60 L327.32,443.73 L327.21,442.81 L326.95,441.60 L327.07,441.02 L327.29,440.86 L327.54,441.02 L327.79,441.29 L328.09,441.50 Z" />
</svg>