<svg xmlns="http://www.w3.org/2000/svg" viewBox="0 0 958.4 1000.0"><path id="411" title="Ntungamo" d="M160.21,927.69 L157.54,926.86 L155.15,927.19 L152.85,928.22 L150.09,928.91 L147.13,928.53 L144.13,927.66 L141.23,927.23 L138.54,928.19 L137.07,930.69 L135.93,937.95 L135.02,940.62 L133.95,941.51 L131.01,942.83 L130.38,943.36 L130.26,943.35 L125.78,943.15 L120.44,944.79 L116.09,949.02 L110.44,950.54 L110.77,945.41 L107.27,943.55 L100.86,943.08 L94.87,941.17 L92.67,936.87 L91.3,931.78 L87.85,928.23 L86.85,924.18 L87.05,920.95 L87.81,918.19 L91.24,915.2 L92.69,912.05 L92.44,908.39 L92.95,904.53 L89.77,901.62 L85.94,899.16 L86.41,894.31 L89.35,887.94 L90.19,881.17 L89.52,874.41 L93.89,873.66 L98.57,873.99 L102.57,870.17 L106.85,866.75 L112.18,868.23 L116.01,872.59 L121.09,873.68 L127.17,873.52 L124.69,878.13 L125.4,881.55 L131.46,883.53 L143.18,884.56 L148.35,883.3 L151.89,881.0 L155.56,882.59 L159.39,885.54 L164.09,886.53 L166.79,885.21 L169.62,884.55 L172.16,885.93 L173.98,885.57 L175.72,884.84 L176.9,883.61 L178.24,882.63 L182.89,882.44 L182.67,891.95 L180.42,896.5 L177.05,900.67 L174.27,901.68 L170.71,906.75 L168.48,908.84 L167.3,911.63 L166.81,914.43 L164.22,920.64 L160.59,926.37 L160.21,927.69 Z"/><path id="404" title="Kabale" d="M90.88,984.5 L89.96,984.99 L87.67,987.35 L86.08,991.18 L84.26,991.56 L72.34,998.17 L68.48,999.6 L64.79,1000.0 L61.36,999.02 L58.35,996.21 L56.64,992.49 L56.22,985.26 L55.44,981.58 L50.51,974.41 L48.58,973.43 L48.56,973.43 L48.03,971.9 L38.96,952.25 L43.62,948.72 L38.21,944.52 L31.95,937.42 L31.42,935.49 L34.13,932.93 L36.2,929.84 L36.45,927.59 L38.36,926.13 L39.23,920.95 L48.74,921.52 L52.46,925.37 L56.41,927.79 L58.66,924.77 L61.75,924.3 L67.3,925.33 L91.3,931.78 L92.67,936.87 L94.87,941.17 L100.86,943.08 L107.27,943.55 L110.77,945.41 L110.44,950.54 L116.09,949.02 L120.44,944.79 L125.78,943.15 L130.26,943.35 L130.38,943.36 L129.78,943.85 L129.27,944.9 L128.88,947.42 L128.54,948.59 L126.66,951.76 L124.36,954.7 L116.55,962.12 L113.84,963.74 L112.54,964.12 L111.14,964.23 L109.74,964.47 L108.36,965.28 L107.11,967.68 L106.04,974.48 L105.13,977.15 L103.23,978.93 L96.06,981.72 L90.88,984.5 Z"/><path id="408" title="Kisoro" d="M48.56,973.43 L47.0,973.19 L45.48,973.65 L43.86,974.66 L42.27,976.55 L41.21,980.02 L39.76,980.87 L38.55,980.44 L34.81,978.17 L32.72,977.7 L28.46,978.46 L25.52,979.98 L22.8,981.94 L19.18,983.97 L15.92,984.86 L12.23,985.14 L5.17,984.76 L6.82,974.45 L6.79,971.09 L6.1,969.11 L4.05,965.59 L3.96,963.72 L5.62,959.28 L5.79,957.79 L4.75,953.99 L2.95,951.31 L1.51,948.48 L1.49,944.25 L3.63,933.4 L3.79,930.24 L3.07,926.84 L0.48,920.09 L0.0,917.01 L0.51,914.9 L0.54,914.85 L5.53,917.04 L7.36,918.23 L8.19,920.25 L9.75,921.14 L11.91,921.3 L19.19,924.18 L21.21,925.36 L23.8,926.39 L28.03,926.31 L36.2,929.84 L34.13,932.93 L31.42,935.49 L31.95,937.42 L38.21,944.52 L43.62,948.72 L38.96,952.25 L48.03,971.9 L48.56,973.43 Z"/><path id="110" title="Rakai" d="M428.06,917.01 L396.83,917.01 L364.69,917.01 L332.54,917.01 L304.14,917.01 L304.12,916.99 L302.31,915.07 L298.97,911.49 L298.24,907.09 L296.99,902.61 L293.34,898.99 L289.33,896.34 L286.99,892.59 L290.09,888.6 L287.59,880.75 L288.26,876.31 L286.68,871.33 L283.47,867.17 L276.35,860.56 L268.04,855.58 L275.57,841.86 L278.55,833.75 L287.54,834.48 L295.04,832.98 L296.5,822.46 L304.03,831.48 L315.53,839.48 L327.33,844.02 L335.52,846.97 L342.02,843.98 L343.52,834.98 L347.36,831.31 L354.02,830.98 L360.01,827.98 L364.01,823.48 L370.82,824.72 L375.99,832.32 L374.45,836.9 L375.82,841.47 L375.14,842.79 L373.94,843.94 L373.66,848.44 L376.08,852.92 L379.15,856.43 L382.81,864.52 L386.91,869.49 L390.62,871.31 L397.09,873.62 L400.32,875.0 L405.88,876.39 L412.34,876.85 L428.06,876.85 L428.06,916.99 L428.06,917.01 Z"/><path id="101" title="Kalangala" d="M557.31,917.01 L525.45,917.01 L493.28,917.01 L461.13,917.01 L428.97,917.01 L428.06,917.01 L428.06,916.99 L428.06,876.85 L428.06,813.52 L431.76,810.74 L435.46,808.44 L439.62,806.12 L442.39,802.42 L441.94,797.8 L436.78,795.64 L435.66,792.67 L434.14,789.91 L432.7,787.96 L432.19,786.78 L432.01,785.41 L431.58,784.28 L430.25,783.82 L428.76,783.9 L427.73,783.84 L426.88,783.17 L426.0,781.42 L426.98,776.94 L427.06,774.23 L425.46,773.03 L423.7,773.2 L417.6,775.31 L419.14,768.22 L420.0,765.61 L418.96,765.42 L416.4,764.53 L419.18,763.22 L423.99,767.18 L430.05,768.73 L474.06,768.77 L498.53,769.02 L517.07,769.6 L536.72,769.6 L579.25,769.6 L579.25,822.1 L579.25,916.99 L579.25,917.01 L557.59,917.01 L557.31,917.01 Z"/><path id="120" title="Buvuma" d="M680.95,917.01 L654.03,917.01 L621.87,917.01 L589.74,917.01 L579.25,917.01 L579.25,916.99 L579.25,822.1 L608.49,766.77 L619.82,724.98 L629.5,709.05 L636.64,702.07 L638.62,694.77 L639.87,688.52 L645.59,684.08 L653.99,679.46 L657.87,680.72 L674.04,687.82 L680.92,703.43 L680.95,916.99 L680.95,917.01 Z"/><path id="214" title="Mayuge" d="M717.01,917.01 L686.17,917.01 L680.95,917.01 L680.95,916.99 L680.92,703.43 L674.04,687.82 L679.52,686.91 L687.48,682.48 L689.91,681.88 L692.19,681.57 L694.62,680.05 L696.14,676.4 L697.81,671.39 L702.28,667.09 L705.42,661.82 L712.98,663.3 L710.9,667.01 L714.97,669.55 L718.53,674.12 L727.83,676.27 L726.31,684.47 L727.27,687.18 L727.27,688.32 L727.27,691.84 L722.07,697.51 L720.98,728.12 L727.87,741.21 L736.14,748.1 L735.59,752.9 L717.01,759.13 L717.01,916.99 L717.01,917.01 Z"/><path id="230" title="Namayingo" d="M764.85,917.01 L750.46,917.01 L718.33,917.01 L717.01,917.01 L717.01,916.99 L717.01,759.13 L735.59,752.9 L736.14,748.1 L727.87,741.21 L720.98,728.12 L722.07,697.51 L727.27,691.84 L727.27,688.32 L727.27,687.18 L726.31,684.47 L734.07,680.22 L740.27,675.74 L746.13,673.33 L751.64,673.67 L753.37,666.09 L756.81,661.27 L762.8,657.74 L766.74,665.58 L767.25,670.05 L765.18,673.24 L762.24,676.12 L760.08,680.52 L760.86,685.78 L764.91,693.89 L770.42,701.48 L773.13,704.81 L774.63,706.02 L774.69,706.07 L773.2,708.07 L762.98,721.68 L762.44,725.14 L767.9,743.24 L773.33,761.28 L773.51,768.06 L770.28,795.94 L766.1,832.15 L763.2,857.34 L763.85,881.27 L764.85,917.01 Z"/><path id="315" title="Kaabong" d="M698.74,78.71 L699.6,78.21 L712.52,65.25 L729.33,48.4 L748.95,28.74 L763.42,14.28 L777.65,0.0 L782.73,2.45 L786.68,5.56 L788.88,9.64 L788.64,15.04 L788.86,17.43 L790.4,19.36 L792.36,21.15 L793.83,23.12 L794.38,25.16 L794.43,27.22 L793.93,31.31 L793.24,33.76 L792.47,35.43 L792.4,37.21 L793.78,40.0 L795.87,41.95 L798.44,43.67 L800.48,45.69 L800.91,48.52 L799.04,53.02 L796.81,57.07 L796.56,60.12 L800.64,61.59 L803.4,61.05 L810.37,58.56 L813.78,58.58 L817.66,60.61 L818.12,63.01 L816.21,65.37 L807.83,69.71 L808.15,70.67 L810.91,71.71 L813.11,74.38 L809.61,76.62 L808.44,77.97 L810.68,78.82 L812.16,78.72 L815.2,77.94 L818.64,77.71 L822.13,76.73 L823.98,76.57 L824.09,77.43 L827.99,82.47 L830.64,89.55 L832.67,90.7 L833.49,89.97 L834.25,88.28 L836.08,86.57 L840.86,85.18 L844.02,86.45 L849.71,92.53 L853.02,94.25 L856.3,95.26 L858.88,96.92 L860.06,100.61 L859.62,114.73 L857.97,121.77 L854.63,126.9 L853.0,127.73 L851.2,128.2 L849.6,128.9 L848.62,130.44 L848.77,132.34 L850.93,136.1 L851.66,138.03 L851.38,139.69 L849.62,143.99 L849.1,145.98 L849.55,148.08 L850.93,149.96 L852.58,151.77 L853.87,153.64 L856.14,160.65 L857.88,182.21 L859.79,186.23 L863.45,188.56 L871.73,190.93 L875.41,193.37 L877.47,197.05 L877.41,197.08 L877.35,197.1 L874.18,199.23 L870.89,200.35 L866.9,198.88 L863.03,199.26 L856.41,200.8 L849.5,199.83 L839.35,199.61 L830.37,194.79 L809.35,179.57 L788.03,172.14 L765.2,171.38 L766.45,166.12 L764.73,162.11 L759.72,161.02 L754.6,163.22 L745.69,158.79 L736.61,152.16 L731.68,142.25 L724.53,133.84 L721.17,124.21 L716.69,115.28 L705.23,99.09 L699.03,79.51 L698.74,78.71 Z"/><path id="305" title="Kitgum" d="M684.63,83.46 L692.23,82.52 L698.74,78.71 L699.03,79.51 L705.23,99.09 L716.69,115.28 L721.17,124.21 L724.53,133.84 L731.68,142.25 L736.61,152.16 L735.11,154.36 L733.98,156.67 L735.09,161.58 L730.99,166.3 L725.72,170.02 L720.48,170.23 L715.45,167.96 L709.1,166.76 L702.66,166.98 L698.61,167.56 L694.73,167.24 L691.82,164.88 L688.7,163.06 L674.44,161.58 L679.25,168.51 L667.79,168.1 L669.3,179.76 L660.99,180.46 L654.0,182.89 L643.71,181.16 L639.53,194.65 L633.37,211.07 L628.49,202.8 L622.92,198.08 L617.4,190.91 L604.15,183.74 L594.04,182.63 L593.46,195.1 L587.05,191.46 L577.62,185.38 L571.03,184.46 L567.94,182.58 L567.15,172.57 L567.15,165.39 L563.55,158.2 L563.55,149.99 L565.61,145.37 L582.55,144.34 L589.22,142.8 L593.33,139.72 L593.33,136.13 L595.38,132.02 L625.15,132.02 L627.72,129.45 L629.77,122.27 L633.37,120.21 L637.99,120.21 L645.69,128.94 L645.69,138.18 L655.44,138.69 L655.95,115.59 L653.9,105.84 L649.79,100.19 L648.77,94.55 L650.31,89.41 L652.38,81.83 L656.39,82.03 L684.63,83.46 Z"/><path id="327" title="Lamwo" d="M605.59,58.68 L609.1,60.14 L631.27,78.25 L634.96,80.18 L640.39,81.24 L652.38,81.83 L650.31,89.41 L648.77,94.55 L649.79,100.19 L653.9,105.84 L655.95,115.59 L655.44,138.69 L645.69,138.18 L645.69,128.94 L637.99,120.21 L633.37,120.21 L629.77,122.27 L627.72,129.45 L625.15,132.02 L595.38,132.02 L593.33,136.13 L593.33,139.72 L589.22,142.8 L582.55,144.34 L565.61,145.37 L563.55,149.99 L563.55,158.2 L567.15,165.39 L567.15,172.57 L567.94,182.58 L559.65,184.28 L549.9,190.17 L520.94,190.33 L519.94,186.45 L498.29,167.49 L493.25,163.83 L486.71,159.09 L477.65,148.52 L475.53,142.85 L468.56,135.84 L467.58,132.32 L465.73,129.43 L464.91,126.15 L461.37,121.59 L461.91,119.11 L461.95,116.39 L461.19,110.11 L461.38,107.83 L463.45,105.45 L495.77,85.8 L503.45,84.0 L535.71,81.37 L563.31,79.14 L578.04,74.7 L591.84,67.7 L602.49,59.79 L605.59,58.68 Z"/><path id="319" title="Amuru" d="M457.85,124.31 L459.98,124.23 L461.13,122.71 L461.37,121.59 L464.91,126.15 L465.73,129.43 L467.58,132.32 L468.56,135.84 L475.53,142.85 L477.65,148.52 L486.71,159.09 L493.25,163.83 L486.5,169.92 L479.93,178.96 L468.84,188.4 L465.56,193.74 L461.86,204.83 L461.45,215.1 L464.46,222.48 L468.43,251.65 L468.02,255.76 L465.79,261.68 L462.06,259.81 L454.59,257.95 L448.36,253.59 L440.27,253.59 L434.05,252.97 L427.83,249.23 L386.13,249.85 L381.15,254.21 L378.66,261.06 L358.12,261.06 L350.65,264.79 L342.56,273.5 L336.96,279.11 L329.26,281.37 L328.0,277.67 L328.57,273.52 L329.49,272.57 L332.5,270.99 L333.47,270.04 L333.78,267.92 L333.32,265.81 L332.61,263.82 L331.65,257.64 L329.93,255.56 L327.28,254.2 L323.87,251.84 L320.04,245.59 L319.44,238.27 L321.03,231.11 L325.52,221.99 L332.76,223.93 L336.99,227.51 L340.69,232.3 L345.28,233.58 L346.82,236.06 L349.07,237.24 L352.34,237.15 L354.79,235.6 L359.16,229.29 L364.64,221.65 L383.18,218.73 L418.35,207.82 L419.05,204.33 L419.44,200.76 L425.91,190.23 L426.15,186.48 L427.24,183.13 L429.87,180.73 L431.98,177.94 L433.79,174.8 L434.79,171.53 L433.94,167.76 L434.32,164.11 L437.78,157.78 L437.35,154.81 L435.86,151.73 L435.48,148.03 L435.82,144.45 L438.0,143.28 L439.14,141.09 L440.0,116.05 L440.0,115.91 L441.17,117.78 L443.85,120.55 L446.81,122.08 L457.85,124.31 Z"/><path id="301" title="Adjumani" d="M434.38,111.2 L435.78,111.29 L437.77,112.35 L440.0,115.91 L440.0,116.05 L439.14,141.09 L438.0,143.28 L435.82,144.45 L435.48,148.03 L435.86,151.73 L437.35,154.81 L437.78,157.78 L434.32,164.11 L433.94,167.76 L434.79,171.53 L433.79,174.8 L431.98,177.94 L429.87,180.73 L427.24,183.13 L426.15,186.48 L425.91,190.23 L419.44,200.76 L419.05,204.33 L418.35,207.82 L383.18,218.73 L364.64,221.65 L359.16,229.29 L354.79,235.6 L352.34,237.15 L349.07,237.24 L346.82,236.06 L345.28,233.58 L340.69,232.3 L336.99,227.51 L332.76,223.93 L325.52,221.99 L327.82,215.25 L330.42,211.56 L338.4,203.1 L344.86,193.35 L346.99,188.77 L351.67,178.71 L353.74,171.29 L354.5,166.57 L355.04,165.19 L355.95,164.0 L357.15,162.82 L358.2,161.48 L359.71,155.43 L362.29,152.16 L368.35,146.11 L369.47,142.82 L370.33,138.38 L371.52,134.48 L374.59,132.07 L375.46,130.42 L376.62,128.77 L378.47,128.02 L382.34,127.67 L386.33,126.82 L388.04,125.76 L392.32,121.92 L396.01,120.53 L398.03,120.19 L397.66,122.47 L399.44,122.8 L402.62,122.57 L404.2,123.97 L406.2,125.27 L408.35,126.27 L410.42,126.81 L414.39,126.47 L417.86,124.57 L420.28,121.52 L421.2,117.72 L423.16,115.24 L432.03,112.64 L434.38,111.2 Z"/><path id="309" title="Moyo" d="M395.56,72.56 L396.6,73.04 L400.75,76.53 L413.26,90.5 L415.78,94.72 L416.44,98.05 L416.98,106.13 L418.19,109.1 L420.59,110.35 L434.38,111.2 L432.03,112.64 L423.16,115.24 L421.2,117.72 L420.28,121.52 L417.86,124.57 L414.39,126.47 L410.42,126.81 L408.35,126.27 L406.2,125.27 L404.2,123.97 L402.62,122.57 L399.44,122.8 L397.66,122.47 L398.03,120.19 L396.01,120.53 L392.32,121.92 L388.04,125.76 L386.33,126.82 L382.34,127.67 L378.47,128.02 L376.62,128.77 L375.46,130.42 L374.59,132.07 L371.52,134.48 L370.33,138.38 L369.47,142.82 L368.35,146.11 L362.29,152.16 L359.71,155.43 L358.2,161.48 L357.15,162.82 L355.95,164.0 L355.04,165.19 L354.5,166.57 L353.74,171.29 L351.67,178.71 L346.99,188.77 L335.77,175.67 L334.95,152.26 L336.32,133.76 L348.86,115.36 L357.93,103.16 L362.69,91.78 L372.28,90.37 L375.49,89.0 L377.12,87.52 L391.1,71.82 L391.48,70.81 L392.02,70.92 L395.56,72.56 Z"/><path id="313" title="Yumbe" d="M346.85,98.97 L348.74,97.3 L348.92,97.15 L350.97,94.59 L354.06,93.05 L362.69,91.78 L357.93,103.16 L348.86,115.36 L336.32,133.76 L334.95,152.26 L335.77,175.67 L346.99,188.77 L344.86,193.35 L329.36,191.22 L328.51,183.25 L324.86,175.66 L320.07,175.05 L315.95,173.78 L313.83,169.65 L310.55,166.79 L301.63,164.26 L294.45,158.97 L290.96,155.37 L285.88,153.78 L281.4,153.05 L277.84,155.08 L276.39,159.23 L273.0,161.87 L268.02,162.86 L264.32,159.22 L263.45,139.62 L261.4,120.62 L263.97,97.51 L266.94,85.68 L268.52,85.06 L273.22,81.39 L279.73,76.31 L284.31,75.03 L292.61,75.04 L299.79,76.04 L306.69,78.23 L321.21,86.11 L343.64,98.31 L346.85,98.97 Z"/><path id="308" title="Moroto" d="M877.47,197.05 L877.48,197.07 L882.58,223.63 L884.34,226.69 L889.91,232.89 L892.54,237.08 L894.14,238.73 L896.54,239.37 L897.63,239.0 L899.59,237.39 L900.31,237.04 L900.75,236.73 L901.53,235.36 L901.96,235.08 L902.63,235.39 L903.02,236.0 L903.31,236.61 L903.65,236.93 L903.98,237.4 L908.95,239.78 L909.88,240.01 L911.07,241.5 L911.78,243.05 L915.36,254.12 L918.02,269.38 L925.43,284.77 L927.08,286.38 L929.49,286.56 L930.91,285.26 L932.07,283.8 L933.67,283.56 L935.43,285.95 L936.43,294.69 L937.44,298.04 L942.23,302.96 L943.85,305.95 L943.38,309.94 L940.78,313.05 L937.24,315.06 L934.07,317.51 L932.52,321.85 L933.67,328.75 L940.46,345.12 L943.63,352.77 L937.04,363.18 L929.46,369.92 L926.62,360.33 L925.24,335.37 L919.34,318.52 L914.18,304.75 L911.76,298.29 L905.02,291.55 L894.9,288.18 L894.9,277.22 L889.0,275.54 L880.58,273.01 L871.31,264.58 L858.66,253.62 L848.55,249.41 L835.91,247.72 L825.87,243.54 L826.99,235.72 L829.88,228.61 L840.69,214.87 L849.5,199.83 L856.41,200.8 L863.03,199.26 L866.9,198.88 L870.89,200.35 L874.18,199.23 L877.35,197.1 L877.41,197.08 L877.47,197.05 Z"/><path id="206" title="Kapchorwa" d="M880.02,549.01 L876.55,549.67 L873.69,548.04 L870.78,547.36 L873.72,536.87 L873.76,530.87 L869.21,526.43 L857.37,519.92 L839.35,512.69 L835.94,508.95 L836.79,503.68 L839.51,499.01 L844.0,494.39 L849.44,490.86 L857.74,487.11 L863.88,492.68 L875.06,495.73 L881.16,499.8 L881.67,506.91 L877.6,517.08 L877.97,530.18 L877.55,539.09 L879.53,547.93 L880.0,548.98 L880.02,549.01 Z"/><path id="324" title="Amudat" d="M943.63,352.77 L951.56,371.87 L951.58,375.27 L949.93,383.1 L949.66,386.52 L949.87,390.15 L950.6,393.66 L951.85,396.74 L953.39,398.56 L957.51,402.41 L958.4,404.37 L957.75,406.25 L954.47,410.41 L953.7,412.54 L953.52,446.67 L952.47,450.48 L946.9,462.28 L945.63,464.28 L943.83,465.96 L942.09,466.76 L938.4,467.51 L936.64,468.39 L932.6,474.42 L928.89,488.6 L918.46,497.14 L918.77,500.08 L918.68,499.97 L912.0,491.71 L901.29,475.11 L893.57,470.39 L904.17,463.47 L913.44,457.57 L920.19,445.77 L922.71,428.92 L922.71,406.16 L923.56,390.99 L932.83,390.15 L929.46,369.92 L937.04,363.18 L943.63,352.77 Z"/><path id="202" title="Busia" d="M804.78,640.97 L800.55,658.3 L800.01,659.79 L798.77,661.62 L795.74,665.22 L794.96,666.81 L795.14,670.05 L797.12,676.45 L796.63,680.03 L795.12,682.35 L788.81,687.25 L774.69,706.07 L774.63,706.02 L773.13,704.81 L770.42,701.48 L764.91,693.89 L760.86,685.78 L760.08,680.52 L762.24,676.12 L765.18,673.24 L767.25,670.05 L766.74,665.58 L762.8,657.74 L763.18,653.86 L769.39,645.45 L772.67,644.78 L774.14,641.9 L777.52,642.36 L780.86,642.38 L783.78,640.75 L786.88,639.67 L803.89,640.81 L804.69,640.95 L804.78,640.97 Z"/><path id="212" title="Tororo" d="M833.69,609.83 L833.0,613.88 L830.17,621.41 L825.94,625.94 L820.26,628.83 L813.13,631.41 L807.94,634.96 L804.92,640.37 L804.78,640.97 L804.69,640.95 L803.89,640.81 L786.88,639.67 L783.78,640.75 L780.86,642.38 L777.52,642.36 L774.14,641.9 L763.33,634.08 L761.04,627.13 L757.99,620.75 L759.32,619.21 L759.48,617.12 L768.23,597.53 L772.31,592.01 L777.99,588.16 L781.19,587.76 L784.51,587.74 L787.56,586.53 L790.08,584.4 L793.02,582.79 L796.59,582.52 L801.11,584.45 L805.14,587.0 L808.44,590.66 L810.42,595.56 L821.98,604.81 L833.62,609.8 L833.69,609.83 Z"/><path id="221" title="Manafwa" d="M863.03,565.37 L862.98,569.21 L861.95,572.81 L857.39,584.06 L852.33,590.64 L849.8,597.71 L846.79,600.45 L835.52,606.09 L834.07,607.63 L833.69,609.83 L833.62,609.8 L821.98,604.81 L810.42,595.56 L815.78,590.54 L817.52,582.82 L818.95,578.95 L821.15,575.44 L827.39,572.44 L827.26,569.2 L827.95,565.51 L839.54,565.36 L839.54,567.76 L842.63,567.76 L842.97,563.99 L859.07,563.99 L863.03,565.37 Z"/><path id="223" title="Bududa" d="M870.78,547.36 L867.19,550.88 L865.47,554.02 L864.0,557.6 L863.09,561.34 L863.03,565.37 L859.07,563.99 L842.97,563.99 L842.63,567.76 L839.54,567.76 L839.54,565.36 L827.95,565.51 L830.84,561.9 L833.05,557.8 L837.26,552.25 L844.38,550.18 L849.93,546.84 L864.34,548.15 L870.78,547.36 Z"/><path id="320" title="Maracha" d="M213.34,192.5 L220.5,170.98 L223.65,164.76 L224.29,164.36 L226.4,163.88 L227.22,163.47 L227.78,162.56 L228.0,160.72 L228.31,159.87 L231.79,153.88 L236.85,148.32 L238.19,146.39 L242.6,151.06 L247.21,155.31 L252.69,157.92 L254.9,155.8 L257.08,154.43 L264.32,159.22 L259.79,167.46 L258.56,176.49 L253.63,181.83 L246.24,186.76 L240.09,193.59 L221.11,192.74 L213.34,192.5 Z"/><path id="331" title="Zombo" d="M232.37,331.46 L229.41,330.12 L226.15,327.2 L223.24,323.75 L221.46,320.87 L220.99,318.3 L221.02,315.64 L220.63,313.49 L218.89,312.49 L206.58,312.37 L204.06,311.61 L203.55,308.59 L205.15,304.94 L207.36,301.36 L208.71,298.54 L208.85,295.39 L208.18,288.89 L208.4,285.63 L209.12,283.83 L212.55,278.48 L212.96,277.11 L213.09,276.37 L213.5,274.16 L214.63,271.09 L225.77,268.63 L231.75,264.73 L241.64,261.35 L248.92,260.31 L250.64,267.37 L252.94,273.83 L252.92,281.82 L263.37,286.36 L267.05,297.63 L264.5,304.25 L259.15,307.57 L258.13,313.94 L250.73,314.96 L249.27,318.58 L242.75,318.55 L239.87,323.37 L237.43,329.02 L232.37,331.46 Z"/><path id="310" title="Nebbi" d="M274.66,340.24 L272.28,340.13 L264.58,338.8 L262.03,337.46 L261.12,335.87 L261.7,335.16 L262.68,334.65 L262.95,333.64 L262.53,332.34 L262.13,331.61 L252.23,320.47 L249.27,318.58 L250.73,314.96 L258.13,313.94 L259.15,307.57 L264.5,304.25 L267.05,297.63 L263.37,286.36 L275.05,284.38 L282.06,280.38 L299.13,278.16 L305.43,273.25 L307.28,270.72 L306.99,267.11 L307.91,264.47 L310.44,262.51 L311.96,259.77 L312.76,257.4 L316.04,255.95 L323.87,251.84 L327.28,254.2 L329.93,255.56 L331.65,257.64 L332.61,263.82 L333.32,265.81 L333.78,267.92 L333.47,270.04 L332.5,270.99 L329.49,272.57 L328.57,273.52 L328.0,277.67 L329.26,281.37 L331.52,284.63 L334.01,287.42 L336.12,291.07 L338.78,298.6 L341.85,301.21 L343.36,301.07 L345.32,300.45 L347.02,300.35 L347.75,301.81 L347.51,303.78 L346.77,305.54 L345.46,306.82 L343.54,307.31 L340.91,308.55 L339.16,311.62 L338.29,315.57 L338.26,318.1 L337.6,322.84 L336.88,327.34 L334.17,329.93 L330.05,332.4 L320.98,336.69 L314.52,343.62 L313.18,348.34 L315.58,358.24 L309.15,362.47 L304.07,363.18 L304.13,362.83 L303.83,362.37 L301.85,359.35 L291.92,353.71 L288.27,350.87 L286.92,347.85 L286.33,344.16 L286.06,336.58 L277.58,339.78 L274.66,340.24 Z"/><path id="403" title="Hoima" d="M176.52,506.43 L184.17,496.59 L199.0,477.51 L222.75,458.34 L246.88,438.82 L259.42,428.71 L268.15,417.75 L312.3,421.2 L318.2,426.61 L318.35,435.74 L319.02,438.02 L319.24,440.53 L320.71,442.62 L318.71,452.13 L321.02,458.68 L325.14,457.41 L329.02,456.71 L330.25,460.35 L332.46,484.65 L333.27,493.7 L336.32,497.0 L340.33,500.04 L345.1,501.92 L331.76,515.24 L326.66,517.22 L316.61,522.28 L310.67,524.08 L305.9,527.87 L298.37,526.71 L291.74,526.82 L289.02,530.08 L285.48,531.63 L280.65,531.18 L275.94,531.49 L272.0,537.05 L267.42,536.67 L264.09,536.05 L257.3,539.76 L249.15,540.8 L232.36,546.87 L220.66,543.58 L214.41,545.87 L209.77,550.97 L197.9,555.83 L183.43,557.89 L175.54,552.34 L175.87,537.03 L176.52,506.43 Z"/><path id="423" title="Ntoroko" d="M149.4,530.14 L151.76,529.89 L155.08,529.01 L157.53,528.0 L159.76,526.44 L163.27,523.46 L176.52,506.43 L175.87,537.03 L175.54,552.34 L174.43,556.72 L171.86,567.83 L162.07,575.12 L155.17,584.08 L142.08,597.17 L133.81,590.28 L129.68,603.38 L121.41,608.89 L109.21,615.46 L111.73,609.32 L113.4,607.23 L114.83,605.73 L116.05,597.29 L119.12,593.28 L123.54,591.18 L115.5,583.8 L111.51,573.34 L111.56,573.24 L112.1,572.61 L112.92,569.78 L116.88,565.62 L118.09,562.36 L117.15,555.22 L117.09,551.83 L119.33,549.73 L119.94,548.2 L120.4,546.38 L120.76,542.63 L121.23,541.48 L126.58,535.99 L128.1,535.23 L129.6,534.76 L131.21,535.05 L133.12,536.58 L136.15,538.0 L138.3,535.71 L140.43,532.17 L143.37,529.89 L145.42,529.7 L149.4,530.14 Z"/><path id="401" title="Bundibugyo" d="M76.16,591.88 L78.65,589.96 L86.02,586.63 L104.77,582.37 L106.48,581.4 L108.38,579.16 L111.51,573.34 L115.5,583.8 L123.54,591.18 L119.12,593.28 L116.05,597.29 L114.83,605.73 L113.4,607.23 L111.73,609.32 L109.21,615.46 L106.49,620.01 L104.29,624.77 L102.64,630.19 L98.92,634.18 L94.6,641.73 L91.2,650.02 L89.41,652.21 L87.72,654.71 L85.71,656.0 L83.38,656.92 L80.79,660.61 L78.95,664.83 L75.45,666.71 L74.4,667.8 L72.17,668.93 L69.93,669.71 L68.57,669.52 L67.39,668.9 L65.46,667.21 L63.91,665.6 L62.42,664.01 L65.75,660.15 L66.31,658.94 L68.84,653.46 L68.4,646.62 L65.15,632.42 L65.24,628.81 L67.4,613.98 L66.44,604.89 L66.69,603.11 L70.03,596.16 L72.3,594.85 L76.16,591.88 Z"/><path id="405" title="Kabarole" d="M49.9,681.79 L51.12,678.01 L53.14,674.73 L62.42,664.01 L63.91,665.6 L65.46,667.21 L67.39,668.9 L68.57,669.52 L69.93,669.71 L72.17,668.93 L74.4,667.8 L75.45,666.71 L78.95,664.83 L80.79,660.61 L83.38,656.92 L85.71,656.0 L87.72,654.71 L89.41,652.21 L91.2,650.02 L94.6,641.73 L98.92,634.18 L102.64,630.19 L104.29,624.77 L106.49,620.01 L109.21,615.46 L121.41,608.89 L129.68,603.38 L133.81,590.28 L142.08,597.17 L155.17,584.08 L162.07,575.12 L171.86,567.83 L175.05,577.74 L170.91,581.71 L167.35,586.15 L164.6,591.17 L165.3,592.45 L166.23,593.5 L164.03,599.41 L160.57,604.49 L156.67,607.16 L155.65,617.04 L154.58,622.36 L151.86,624.93 L148.99,628.53 L149.21,632.97 L151.91,635.71 L159.41,641.21 L156.94,642.08 L154.47,645.93 L152.35,648.14 L147.94,651.39 L145.36,655.74 L145.98,658.43 L146.1,661.13 L143.49,666.62 L147.16,671.3 L147.63,675.85 L145.85,686.37 L142.82,700.99 L130.79,697.75 L126.47,694.69 L122.09,691.59 L117.27,688.14 L108.31,688.83 L103.49,680.56 L89.7,676.43 L71.1,680.56 L49.9,681.79 Z"/><path id="406" title="Kasese" d="M41.92,713.13 L43.66,712.02 L44.28,710.68 L49.9,681.79 L71.1,680.56 L89.7,676.43 L103.49,680.56 L108.31,688.83 L117.27,688.14 L122.09,691.59 L126.47,694.69 L120.72,717.78 L115.56,754.88 L111.62,754.23 L102.6,754.22 L80.06,771.53 L69.34,771.64 L50.42,768.78 L37.33,768.09 L23.32,765.17 L25.56,752.04 L28.19,745.58 L29.13,742.28 L28.97,738.92 L26.9,731.26 L27.15,728.23 L28.68,723.47 L36.41,712.71 L37.37,710.73 L39.44,711.55 L40.72,712.66 L41.92,713.13 Z"/><path id="424" title="Rubirizi" d="M16.75,803.82 L18.0,796.53 L18.53,793.45 L21.44,776.23 L22.5,769.95 L23.32,765.17 L37.33,768.09 L50.42,768.78 L69.34,771.64 L80.06,771.53 L102.6,754.22 L111.62,754.23 L115.56,754.88 L114.72,756.44 L114.05,758.11 L123.13,762.01 L126.99,767.94 L128.83,774.74 L131.46,775.06 L136.07,778.12 L128.99,783.94 L117.27,786.69 L109.0,791.52 L104.87,794.96 L103.49,814.26 L95.22,811.5 L89.01,803.92 L83.5,802.55 L76.61,805.99 L69.72,810.13 L64.21,811.5 L52.24,805.97 L16.75,803.82 Z"/><path id="412" title="Rukungiri" d="M14.21,818.64 L16.75,803.82 L52.24,805.97 L64.21,811.5 L69.28,818.77 L70.12,822.52 L69.77,826.96 L69.21,829.64 L68.81,834.53 L66.76,838.63 L66.29,841.18 L63.62,842.17 L61.28,843.53 L64.07,850.1 L70.77,853.47 L75.83,859.28 L79.08,866.83 L89.52,874.41 L90.19,881.17 L89.35,887.94 L86.41,894.31 L85.94,899.16 L89.77,901.62 L92.95,904.53 L92.44,908.39 L92.69,912.05 L91.24,915.2 L87.81,918.19 L87.05,920.95 L86.85,924.18 L87.85,928.23 L91.3,931.78 L67.3,925.33 L61.75,924.3 L49.48,903.21 L49.99,899.54 L52.33,896.33 L51.66,892.34 L48.28,888.55 L51.11,874.22 L41.01,858.66 L39.41,853.97 L39.92,848.72 L35.56,848.92 L31.39,848.03 L28.16,843.32 L27.45,837.51 L28.52,827.16 L28.38,816.87 L14.21,818.64 Z"/><path id="414" title="Kanungu" d="M0.54,914.85 L1.42,913.36 L2.09,911.65 L1.88,909.06 L1.2,905.76 L1.09,904.01 L1.32,902.42 L3.28,899.33 L8.48,897.57 L10.45,895.21 L10.94,892.67 L11.4,882.11 L11.0,878.41 L9.44,871.56 L9.58,867.9 L11.78,854.07 L12.36,853.16 L13.34,852.44 L14.19,851.55 L14.42,850.19 L14.01,849.13 L12.65,847.26 L12.36,846.21 L13.07,844.29 L14.7,843.82 L16.57,843.69 L17.98,842.73 L18.37,840.28 L17.79,829.51 L16.97,826.81 L15.13,822.96 L14.65,821.95 L14.21,818.64 L28.38,816.87 L28.52,827.16 L27.45,837.51 L28.16,843.32 L31.39,848.03 L35.56,848.92 L39.92,848.72 L39.41,853.97 L41.01,858.66 L51.11,874.22 L48.28,888.55 L51.66,892.34 L52.33,896.33 L49.99,899.54 L49.48,903.21 L61.75,924.3 L58.66,924.77 L56.41,927.79 L52.46,925.37 L48.74,921.52 L39.23,920.95 L38.36,926.13 L36.45,927.59 L36.2,929.84 L28.03,926.31 L23.8,926.39 L21.21,925.36 L19.19,924.18 L11.91,921.3 L9.75,921.14 L8.19,920.25 L7.36,918.23 L5.53,917.04 L0.54,914.85 Z"/><path id="205" title="Kamuli" d="M658.27,575.25 L658.25,581.63 L657.7,584.69 L656.6,587.59 L656.22,590.17 L657.2,592.81 L656.58,594.88 L655.35,596.56 L654.64,600.59 L652.48,603.84 L650.03,605.25 L647.78,606.9 L646.45,609.75 L644.53,617.8 L644.93,622.99 L640.94,621.98 L638.01,620.69 L633.8,621.62 L629.48,621.3 L628.52,624.98 L623.1,623.98 L619.25,626.47 L614.67,624.51 L614.98,616.63 L614.18,608.25 L611.97,600.78 L608.58,593.99 L600.19,580.92 L598.07,574.13 L594.86,550.85 L595.42,547.06 L599.21,544.01 L599.99,540.58 L599.99,536.6 L599.29,533.46 L612.81,534.87 L626.03,540.97 L628.57,548.08 L629.59,555.7 L633.65,558.75 L638.23,560.28 L646.36,566.89 L651.44,571.97 L658.27,575.25 Z"/><path id="229" title="Luuka" d="M644.93,622.99 L644.53,617.8 L646.45,609.75 L647.78,606.9 L650.03,605.25 L652.48,603.84 L654.64,600.59 L655.35,596.56 L656.58,594.88 L657.2,592.81 L656.22,590.17 L656.6,587.59 L657.7,584.69 L658.25,581.63 L658.27,575.25 L658.85,568.96 L661.52,564.61 L663.68,560.21 L662.68,557.71 L662.42,555.35 L665.56,551.45 L669.12,553.42 L671.68,556.7 L673.28,559.5 L675.15,562.15 L677.92,567.97 L674.95,580.07 L676.03,585.66 L681.12,587.94 L682.95,597.89 L680.41,606.02 L679.9,613.13 L686.0,618.22 L696.16,623.81 L696.16,632.95 L696.87,644.82 L693.69,648.68 L688.63,645.22 L682.86,644.86 L677.89,642.8 L677.03,639.65 L675.82,636.54 L671.9,634.24 L670.55,632.88 L669.05,631.64 L664.78,628.91 L660.15,627.03 L653.98,621.77 L644.93,622.99 Z"/><path id="226" title="Buyende" d="M665.56,551.45 L662.42,555.35 L662.68,557.71 L663.68,560.21 L661.52,564.61 L658.85,568.96 L658.27,575.25 L651.44,571.97 L646.36,566.89 L638.23,560.28 L633.65,558.75 L629.59,555.7 L628.57,548.08 L626.03,540.97 L612.81,534.87 L599.29,533.46 L593.99,524.82 L592.37,519.13 L588.29,514.28 L587.31,510.69 L579.94,502.47 L576.4,494.88 L572.95,481.92 L599.79,482.21 L602.42,484.16 L605.62,483.55 L608.58,484.6 L618.18,489.49 L624.35,493.83 L629.48,498.9 L642.61,500.59 L656.62,502.96 L664.51,500.69 L672.5,500.29 L675.04,503.08 L677.2,506.45 L678.94,512.83 L683.78,514.87 L683.31,519.78 L681.86,524.17 L678.41,528.63 L676.03,533.64 L672.86,538.07 L670.23,542.64 L670.54,545.28 L670.21,547.62 L665.56,551.45 Z"/><path id="204" title="Jinja" d="M638.01,620.69 L640.94,621.98 L644.93,622.99 L653.98,621.77 L660.15,627.03 L664.78,628.91 L669.05,631.64 L670.55,632.88 L671.9,634.24 L675.82,636.54 L677.03,639.65 L677.89,642.8 L682.86,644.86 L688.63,645.22 L693.69,648.68 L696.87,644.82 L701.37,648.95 L700.95,652.77 L701.77,656.4 L704.51,658.79 L705.42,661.82 L702.28,667.09 L697.81,671.39 L696.14,676.4 L694.62,680.05 L692.19,681.57 L689.91,681.88 L687.48,682.48 L679.52,686.91 L674.04,687.82 L657.87,680.72 L653.99,679.46 L643.74,676.14 L638.32,672.08 L638.96,665.78 L637.81,659.27 L633.75,654.09 L623.39,645.4 L620.97,642.35 L614.97,628.23 L614.67,624.51 L619.25,626.47 L623.1,623.98 L628.52,624.98 L629.48,621.3 L633.8,621.62 L638.01,620.69 Z"/><path id="302" title="Apac" d="M483.66,451.48 L471.77,448.02 L467.71,446.6 L461.67,446.39 L455.24,448.21 L448.78,451.61 L448.31,448.48 L450.11,442.95 L448.78,439.73 L450.76,437.34 L456.17,432.27 L457.27,430.63 L459.07,428.71 L467.2,426.99 L469.38,425.13 L471.36,425.97 L472.79,425.48 L474.17,424.54 L475.97,424.04 L477.98,423.22 L478.67,421.27 L478.91,419.03 L479.56,417.28 L482.55,416.14 L487.11,414.95 L490.45,412.97 L489.76,409.44 L490.65,408.29 L490.98,406.78 L490.96,402.89 L491.3,401.37 L492.21,400.14 L494.66,397.55 L492.37,396.78 L490.47,396.36 L489.16,395.48 L488.67,393.36 L489.18,391.04 L491.57,386.38 L492.26,384.26 L492.17,380.95 L491.38,377.01 L504.71,382.57 L513.13,380.88 L523.91,364.42 L527.01,358.1 L535.83,358.4 L548.67,358.4 L551.75,361.99 L555.34,365.07 L562.01,365.59 L565.61,368.67 L573.21,371.02 L575.89,373.67 L578.98,375.5 L582.82,375.29 L586.42,376.65 L584.95,384.7 L582.24,392.37 L582.93,398.57 L590.76,399.75 L596.73,402.46 L596.13,413.09 L610.42,421.83 L604.2,439.73 L586.45,423.45 L566.27,424.62 L552.59,436.7 L541.01,447.41 L534.91,450.9 L522.57,450.75 L491.65,450.31 L483.66,451.48 Z"/><path id="109" title="Nakasongola" d="M461.67,446.39 L467.71,446.6 L471.77,448.02 L483.66,451.48 L486.28,455.83 L497.89,459.46 L505.88,464.54 L510.15,465.76 L513.95,468.51 L519.35,473.82 L522.94,474.77 L528.03,473.96 L531.44,479.65 L536.01,484.11 L551.28,482.74 L551.77,497.25 L556.89,499.02 L560.1,500.88 L561.99,501.45 L563.35,504.01 L565.02,504.58 L566.16,505.36 L566.78,507.25 L566.98,509.62 L566.82,511.77 L567.18,515.57 L569.79,533.28 L567.49,551.1 L558.0,552.16 L553.82,544.8 L549.0,539.98 L542.84,541.52 L540.73,551.0 L539.35,562.02 L540.04,570.97 L528.76,569.53 L512.79,562.41 L501.77,549.49 L500.09,538.6 L491.56,530.21 L473.92,522.07 L444.81,492.85 L423.37,481.79 L429.56,472.59 L433.7,471.0 L437.58,468.61 L442.63,462.18 L445.68,454.79 L448.78,451.61 L455.24,448.21 L461.67,446.39 Z"/><path id="409" title="Masindi" d="M448.78,451.61 L445.68,454.79 L442.63,462.18 L437.58,468.61 L433.7,471.0 L429.56,472.59 L423.37,481.79 L417.28,487.18 L410.11,491.48 L399.27,502.66 L395.75,503.23 L392.38,504.3 L388.49,508.54 L380.65,507.72 L372.63,505.44 L345.1,501.92 L340.33,500.04 L336.32,497.0 L333.27,493.7 L332.46,484.65 L330.25,460.35 L329.02,456.71 L325.14,457.41 L321.02,458.68 L318.71,452.13 L320.71,442.62 L319.24,440.53 L319.02,438.02 L318.35,435.74 L328.57,437.34 L339.53,438.19 L351.32,432.29 L356.38,424.7 L356.38,412.9 L361.44,408.69 L366.49,407.85 L368.18,403.63 L365.65,398.58 L360.59,394.36 L355.54,385.94 L349.64,378.35 L349.64,364.87 L351.32,353.07 L350.74,340.99 L362.78,340.99 L364.37,341.37 L366.28,343.0 L367.69,343.38 L370.98,342.95 L387.53,337.39 L385.88,358.97 L386.72,379.19 L390.09,383.41 L396.83,384.25 L401.89,385.94 L405.26,390.99 L408.63,396.05 L408.63,403.63 L406.95,414.59 L406.95,423.02 L411.16,430.6 L413.69,437.34 L413.69,444.09 L418.74,446.62 L425.49,448.3 L428.86,453.36 L434.76,452.51 L434.76,445.77 L442.34,444.93 L448.31,448.48 L448.78,451.61 Z"/><path id="112" title="Kayunga" d="M567.49,551.1 L569.79,533.28 L567.18,515.57 L566.82,511.77 L566.98,509.62 L566.78,507.25 L566.16,505.36 L565.02,504.58 L563.35,504.01 L561.99,501.45 L560.1,500.88 L556.89,499.02 L551.77,497.25 L551.28,482.74 L572.95,481.92 L576.4,494.88 L579.94,502.47 L587.31,510.69 L588.29,514.28 L592.37,519.13 L593.99,524.82 L599.29,533.46 L599.99,536.6 L599.99,540.58 L599.21,544.01 L595.42,547.06 L594.86,550.85 L598.07,574.13 L600.19,580.92 L608.58,593.99 L611.97,600.78 L614.18,608.25 L614.98,616.63 L614.67,624.51 L614.97,628.23 L620.97,642.35 L623.39,645.4 L613.94,640.6 L611.63,637.89 L602.88,627.56 L597.49,623.31 L588.13,619.34 L581.25,613.93 L574.89,603.57 L569.67,592.53 L566.8,571.92 L567.49,551.1 Z"/><path id="103" title="Kiboga" d="M462.74,617.61 L454.98,621.06 L446.48,626.88 L443.1,629.32 L435.98,629.56 L426.73,628.14 L422.3,627.09 L420.27,625.63 L417.87,624.46 L416.3,622.61 L415.97,620.18 L401.59,599.9 L394.68,597.21 L385.06,597.15 L373.35,588.88 L380.93,579.24 L387.82,573.04 L395.39,568.91 L400.9,564.09 L402.97,555.82 L408.48,550.31 L422.23,547.12 L430.4,561.68 L430.74,564.89 L430.58,568.58 L438.07,581.25 L449.33,588.95 L459.71,590.89 L468.97,599.07 L469.47,607.57 L467.47,612.56 L462.74,617.61 Z"/><path id="106" title="Mpigi" d="M476.97,694.03 L477.62,684.44 L477.2,677.52 L477.55,674.06 L476.67,664.65 L495.27,664.65 L507.67,677.74 L504.88,694.45 L502.46,701.13 L500.14,704.47 L495.97,706.41 L493.37,708.72 L491.94,712.28 L489.71,716.2 L486.35,719.03 L482.5,720.2 L479.34,722.12 L477.58,727.0 L473.79,730.03 L470.32,732.25 L469.11,735.89 L469.85,744.13 L474.13,751.29 L474.7,759.59 L474.06,768.77 L430.05,768.73 L423.99,767.18 L419.18,763.22 L409.4,747.09 L405.16,742.25 L417.49,736.02 L428.49,727.52 L434.98,720.52 L443.98,717.02 L452.98,718.52 L460.47,714.03 L468.97,708.53 L473.97,704.53 L477.47,701.03 L476.97,694.03 Z"/><path id="119" title="Butambala" d="M470.97,696.53 L476.97,694.03 L477.47,701.03 L473.97,704.53 L468.97,708.53 L460.47,714.03 L452.98,718.52 L443.98,717.02 L434.98,720.52 L428.49,727.52 L417.49,736.02 L405.16,742.25 L397.62,733.66 L394.22,732.16 L403.0,727.02 L415.99,721.52 L424.49,717.52 L430.99,709.03 L442.48,702.53 L452.48,700.03 L455.29,696.05 L458.6,695.8 L470.97,696.53 Z"/><path id="121" title="Gomba" d="M399.13,691.26 L403.65,692.66 L407.75,699.15 L410.92,701.01 L414.93,702.16 L418.33,701.83 L420.85,699.94 L424.79,700.84 L427.95,699.78 L429.82,697.93 L433.52,697.69 L455.29,696.05 L452.48,700.03 L442.48,702.53 L430.99,709.03 L424.49,717.52 L415.99,721.52 L403.0,727.02 L394.22,732.16 L387.71,729.29 L377.29,727.7 L372.83,729.99 L368.82,732.68 L363.88,733.38 L358.8,732.29 L345.83,723.49 L332.07,715.94 L328.48,714.41 L324.52,708.25 L321.6,706.33 L313.67,705.74 L314.03,696.53 L320.53,694.03 L331.52,692.03 L342.52,688.54 L355.84,681.69 L363.51,682.04 L370.01,684.04 L382.0,688.04 L390.59,695.65 L399.13,691.26 Z"/><path id="113" title="Wakiso" d="M476.67,664.65 L468.97,652.55 L469.58,640.15 L474.7,641.41 L479.38,644.28 L483.59,646.27 L488.49,645.06 L491.12,643.27 L493.77,642.05 L510.36,643.95 L519.01,643.88 L525.58,645.59 L532.3,640.62 L540.14,643.3 L548.16,643.25 L548.25,648.08 L546.29,652.51 L542.52,652.95 L539.11,653.95 L537.98,657.07 L535.33,659.05 L532.17,659.27 L529.98,657.36 L526.89,656.07 L524.57,663.25 L526.07,665.44 L528.72,667.6 L528.03,668.87 L528.23,670.39 L529.41,671.4 L529.7,672.7 L528.63,677.54 L526.2,680.63 L522.41,687.69 L526.58,692.89 L537.13,690.31 L547.11,690.45 L543.33,695.68 L541.37,703.13 L539.34,717.48 L539.65,740.54 L530.07,752.36 L522.19,762.79 L517.07,769.6 L498.53,769.02 L474.06,768.77 L474.7,759.59 L474.13,751.29 L469.85,744.13 L469.11,735.89 L470.32,732.25 L473.79,730.03 L477.58,727.0 L479.34,722.12 L482.5,720.2 L486.35,719.03 L489.71,716.2 L491.94,712.28 L493.37,708.72 L495.97,706.41 L500.14,704.47 L502.46,701.13 L504.88,694.45 L507.67,677.74 L495.27,664.65 L476.67,664.65 Z"/><path id="115" title="Nakaseke" d="M462.74,617.61 L467.47,612.56 L469.47,607.57 L468.97,599.07 L459.71,590.89 L449.33,588.95 L438.07,581.25 L430.58,568.58 L430.74,564.89 L430.4,561.68 L422.23,547.12 L418.69,526.49 L412.21,515.29 L399.27,502.66 L410.11,491.48 L417.28,487.18 L423.37,481.79 L444.81,492.85 L473.92,522.07 L491.56,530.21 L500.09,538.6 L501.77,549.49 L500.78,564.09 L502.85,575.11 L511.8,588.88 L511.96,610.52 L513.46,613.5 L515.78,615.42 L516.49,618.36 L514.21,621.1 L512.28,624.39 L510.34,626.24 L506.87,625.9 L502.61,626.09 L498.51,626.88 L495.28,629.12 L492.61,631.89 L489.29,638.18 L488.49,645.06 L483.59,646.27 L479.38,644.28 L474.7,641.41 L469.58,640.15 L468.49,635.42 L465.97,625.06 L462.74,617.61 Z"/><path id="123" title="Kyankwanzi" d="M399.27,502.66 L412.21,515.29 L418.69,526.49 L422.23,547.12 L408.48,550.31 L402.97,555.82 L400.9,564.09 L395.39,568.91 L387.82,573.04 L380.93,579.24 L373.35,588.88 L367.15,588.88 L357.26,592.55 L331.81,589.68 L331.83,584.0 L329.91,578.32 L332.67,574.96 L337.1,572.08 L338.58,569.73 L341.45,569.2 L344.23,567.89 L346.03,565.21 L346.42,560.56 L343.28,557.01 L333.61,548.67 L326.42,538.05 L321.6,536.07 L316.37,534.66 L310.94,531.62 L305.9,527.87 L310.67,524.08 L316.61,522.28 L326.66,517.22 L331.76,515.24 L345.1,501.92 L372.63,505.44 L380.65,507.72 L388.49,508.54 L392.38,504.3 L395.75,503.23 L399.27,502.66 Z"/><path id="213" title="Kaberamaido" d="M602.42,484.16 L599.79,482.21 L599.97,466.6 L596.13,452.0 L602.39,448.72 L604.2,439.73 L610.81,442.43 L617.2,442.0 L620.01,440.92 L622.68,439.45 L623.42,437.45 L624.02,434.91 L627.6,424.82 L628.74,419.05 L630.26,417.34 L632.5,416.46 L648.29,406.65 L650.99,403.62 L653.08,400.04 L654.71,398.76 L655.67,396.92 L657.21,382.84 L664.56,382.97 L671.26,386.38 L672.08,389.99 L673.57,393.29 L676.85,394.96 L679.19,397.19 L679.36,404.27 L684.0,409.54 L685.78,413.18 L686.25,417.09 L683.15,422.72 L683.11,426.02 L682.97,429.48 L676.49,433.35 L668.27,439.51 L661.09,442.59 L650.82,442.59 L649.79,450.29 L649.34,457.22 L643.78,464.92 L642.46,484.09 L642.61,500.59 L629.48,498.9 L624.35,493.83 L618.18,489.49 L608.58,484.6 L605.62,483.55 L602.42,484.16 Z"/><path id="415" title="Kyenjojo" d="M159.41,641.21 L151.91,635.71 L149.21,632.97 L148.99,628.53 L151.86,624.93 L154.58,622.36 L155.65,617.04 L156.67,607.16 L160.57,604.49 L164.03,599.41 L166.23,593.5 L165.3,592.45 L164.6,591.17 L167.35,586.15 L170.91,581.71 L175.05,577.74 L190.35,584.61 L207.01,588.71 L214.83,592.52 L223.09,594.22 L229.93,600.17 L238.68,611.82 L240.86,615.76 L243.87,618.42 L239.29,620.85 L235.67,621.75 L237.78,625.37 L243.52,628.39 L246.53,629.9 L246.53,640.46 L242.61,641.06 L240.8,643.47 L240.8,659.46 L234.77,659.76 L234.46,668.21 L230.78,668.46 L225.72,670.32 L221.49,668.82 L216.36,667.31 L211.54,669.12 L205.5,671.53 L198.56,678.47 L190.12,683.9 L180.46,688.12 L175.94,688.73 L173.85,684.14 L173.38,677.43 L171.29,671.23 L171.26,665.31 L165.68,662.78 L162.96,658.56 L160.85,651.02 L154.47,645.93 L156.94,642.08 L159.41,641.21 Z"/><path id="413" title="Kamwenge" d="M154.47,645.93 L160.85,651.02 L162.96,658.56 L165.68,662.78 L171.26,665.31 L171.29,671.23 L173.38,677.43 L173.85,684.14 L175.94,688.73 L180.46,688.12 L190.12,683.9 L198.56,678.47 L205.5,671.53 L211.54,669.12 L216.36,667.31 L221.49,668.82 L225.72,670.32 L230.78,668.46 L234.46,668.21 L238.69,668.51 L240.8,670.93 L240.5,677.87 L237.78,681.49 L239.9,686.01 L240.8,691.14 L238.99,694.46 L232.65,695.67 L230.54,698.38 L229.03,708.34 L220.89,708.34 L206.71,708.34 L200.07,708.64 L192.39,712.26 L183.48,715.58 L177.44,718.6 L167.97,720.92 L162.67,723.34 L154.51,737.6 L149.65,745.94 L152.31,752.17 L154.38,762.18 L157.68,764.35 L160.79,768.34 L156.5,769.56 L152.42,771.29 L147.57,769.87 L133.15,763.38 L128.17,762.42 L123.13,762.01 L114.05,758.11 L114.72,756.44 L115.56,754.88 L120.72,717.78 L126.47,694.69 L130.79,697.75 L142.82,700.99 L145.85,686.37 L147.63,675.85 L147.16,671.3 L143.49,666.62 L146.1,661.13 L145.98,658.43 L145.36,655.74 L147.94,651.39 L152.35,648.14 L154.47,645.93 Z"/><path id="421" title="Kyegegwa" d="M256.43,704.66 L255.01,705.43 L242.61,707.73 L229.03,708.34 L230.54,698.38 L232.65,695.67 L238.99,694.46 L240.8,691.14 L239.9,686.01 L237.78,681.49 L240.5,677.87 L240.8,670.93 L238.69,668.51 L234.46,668.21 L234.77,659.76 L240.8,659.46 L240.8,643.47 L242.61,641.06 L246.53,640.46 L246.53,629.9 L243.52,628.39 L237.78,625.37 L235.67,621.75 L239.29,620.85 L243.87,618.42 L253.47,620.24 L261.32,621.45 L269.76,623.56 L277.61,627.31 L282.38,627.93 L286.35,630.06 L289.62,629.8 L292.52,631.67 L297.02,635.98 L299.4,641.46 L298.82,644.18 L297.62,646.81 L297.75,648.96 L295.28,650.28 L282.96,652.4 L279.08,655.78 L277.52,661.58 L274.14,667.6 L274.32,674.36 L275.99,677.39 L277.08,680.41 L275.19,682.63 L272.76,684.74 L269.02,690.16 L264.54,695.09 L259.53,699.11 L256.43,704.66 Z"/><path id="111" title="Sembabule" d="M255.01,705.43 L256.43,704.66 L262.92,704.83 L269.17,703.79 L275.86,700.37 L282.52,700.98 L287.41,706.7 L293.12,711.05 L300.4,711.26 L305.7,706.09 L313.67,705.74 L321.6,706.33 L324.52,708.25 L328.48,714.41 L332.07,715.94 L345.83,723.49 L358.8,732.29 L351.52,737.75 L354.02,750.51 L358.01,771.0 L361.51,787.0 L361.01,793.0 L357.64,794.19 L345.61,796.04 L335.75,796.26 L331.89,795.39 L328.06,794.92 L313.53,792.5 L303.74,786.77 L305.68,782.45 L307.01,777.59 L308.82,773.39 L309.49,768.63 L309.26,766.0 L308.4,763.45 L309.15,758.59 L305.41,754.3 L300.45,751.12 L298.19,757.2 L288.89,752.75 L288.33,749.67 L278.89,746.57 L274.77,745.78 L272.36,747.39 L268.51,748.76 L262.62,747.06 L257.66,746.39 L258.77,743.46 L261.04,741.15 L262.54,737.35 L262.4,726.05 L261.67,719.06 L258.02,712.47 L255.01,705.43 Z"/><path id="407" title="Kibale" d="M331.81,589.68 L329.38,594.02 L329.46,597.32 L327.21,599.36 L325.48,601.95 L323.68,611.4 L318.86,618.25 L310.82,614.99 L303.14,616.69 L292.52,631.67 L289.62,629.8 L286.35,630.06 L282.38,627.93 L277.61,627.31 L269.76,623.56 L261.32,621.45 L253.47,620.24 L243.87,618.42 L240.86,615.76 L238.68,611.82 L229.93,600.17 L223.09,594.22 L214.83,592.52 L207.01,588.71 L190.35,584.61 L175.05,577.74 L171.86,567.83 L174.43,556.72 L175.54,552.34 L183.43,557.89 L197.9,555.83 L209.77,550.97 L214.41,545.87 L220.66,543.58 L232.36,546.87 L249.15,540.8 L257.3,539.76 L264.09,536.05 L267.42,536.67 L272.0,537.05 L275.94,531.49 L280.65,531.18 L285.48,531.63 L289.02,530.08 L291.74,526.82 L298.37,526.71 L305.9,527.87 L310.94,531.62 L316.37,534.66 L321.6,536.07 L326.42,538.05 L333.61,548.67 L343.28,557.01 L346.42,560.56 L346.03,565.21 L344.23,567.89 L341.45,569.2 L338.58,569.73 L337.1,572.08 L332.67,574.96 L329.91,578.32 L331.83,584.0 L331.81,589.68 Z"/><path id="107" title="Mubende" d="M318.86,618.25 L323.68,611.4 L325.48,601.95 L327.21,599.36 L329.46,597.32 L329.38,594.02 L331.81,589.68 L357.26,592.55 L367.15,588.88 L373.35,588.88 L385.06,597.15 L394.68,597.21 L401.59,599.9 L415.97,620.18 L416.3,622.61 L417.87,624.46 L420.27,625.63 L422.3,627.09 L420.18,630.15 L415.73,631.7 L413.32,636.28 L415.02,640.98 L417.42,641.55 L419.54,642.46 L419.78,644.33 L418.71,645.89 L417.33,647.23 L416.93,649.01 L419.76,652.56 L420.47,656.49 L423.46,661.13 L425.04,666.23 L423.28,669.5 L422.61,673.51 L424.59,681.64 L421.49,689.03 L399.13,691.26 L390.59,695.65 L382.0,688.04 L370.01,684.04 L363.51,682.04 L355.84,681.69 L342.52,688.54 L331.52,692.03 L320.53,694.03 L314.03,696.53 L313.67,705.74 L305.7,706.09 L300.4,711.26 L293.12,711.05 L287.41,706.7 L282.52,700.98 L275.86,700.37 L269.17,703.79 L262.92,704.83 L256.43,704.66 L259.53,699.11 L264.54,695.09 L269.02,690.16 L272.76,684.74 L275.19,682.63 L277.08,680.41 L275.99,677.39 L274.32,674.36 L274.14,667.6 L277.52,661.58 L279.08,655.78 L282.96,652.4 L295.28,650.28 L297.75,648.96 L297.62,646.81 L298.82,644.18 L299.4,641.46 L297.02,635.98 L292.52,631.67 L303.14,616.69 L310.82,614.99 L318.86,618.25 Z"/><path id="307" title="Lira" d="M572.9,306.38 L574.98,299.17 L566.62,288.17 L572.06,284.08 L574.86,277.79 L577.14,277.73 L579.14,280.44 L582.46,281.99 L586.65,282.46 L589.96,284.56 L594.6,286.11 L596.98,294.83 L600.48,295.22 L603.01,297.73 L608.65,296.14 L608.21,300.91 L605.65,306.55 L600.0,310.15 L600.0,315.28 L595.38,320.41 L587.68,323.49 L586.65,327.6 L594.35,327.6 L600.51,329.65 L603.08,335.81 L609.75,340.95 L616.43,344.54 L620.02,350.7 L621.15,378.13 L617.25,383.86 L611.95,385.34 L605.87,382.18 L600.01,378.38 L593.53,377.19 L586.42,376.65 L582.82,375.29 L578.98,375.5 L575.89,373.67 L573.21,371.02 L574.69,353.17 L575.82,349.9 L572.61,344.7 L568.17,335.3 L564.07,329.65 L566.63,322.98 L570.23,316.31 L572.9,306.38 Z"/><path id="326" title="Kole" d="M566.75,311.23 L572.9,306.38 L570.23,316.31 L566.63,322.98 L564.07,329.65 L568.17,335.3 L572.61,344.7 L575.82,349.9 L574.69,353.17 L573.21,371.02 L565.61,368.67 L562.01,365.59 L555.34,365.07 L551.75,361.99 L548.67,358.4 L535.83,358.4 L527.01,358.1 L529.12,353.79 L532.26,349.81 L536.36,346.61 L532.63,325.91 L539.58,323.98 L551.72,308.39 L559.12,308.73 L566.75,311.23 Z"/><path id="312" title="Pader" d="M566.62,288.17 L547.02,283.74 L547.29,280.52 L549.89,278.49 L552.23,275.54 L551.36,271.64 L550.14,268.64 L551.68,266.36 L556.35,265.04 L559.09,261.22 L556.82,258.61 L553.5,256.9 L551.37,252.85 L549.67,248.46 L547.49,246.52 L545.31,245.36 L542.64,241.86 L525.0,208.86 L513.72,193.83 L515.51,192.41 L518.89,192.4 L520.94,190.33 L549.9,190.17 L559.65,184.28 L567.94,182.58 L571.03,184.46 L577.62,185.38 L587.05,191.46 L593.46,195.1 L594.04,182.63 L604.15,183.74 L617.4,190.91 L622.92,198.08 L628.49,202.8 L633.37,211.07 L633.37,218.26 L629.77,222.37 L624.64,226.47 L625.67,232.63 L634.91,234.17 L646.2,234.69 L649.79,240.85 L648.77,252.65 L643.12,258.81 L620.53,259.84 L615.91,264.97 L620.02,271.13 L628.67,282.33 L620.81,285.56 L613.77,289.92 L608.65,296.14 L603.01,297.73 L600.48,295.22 L596.98,294.83 L594.6,286.11 L589.96,284.56 L586.65,282.46 L582.46,281.99 L579.14,280.44 L577.14,277.73 L574.86,277.79 L572.06,284.08 L566.62,288.17 Z"/><path id="420" title="Kiryandongo" d="M491.38,377.01 L492.17,380.95 L492.26,384.26 L491.57,386.38 L489.18,391.04 L488.67,393.36 L489.16,395.48 L490.47,396.36 L492.37,396.78 L494.66,397.55 L492.21,400.14 L491.3,401.37 L490.96,402.89 L490.98,406.78 L490.65,408.29 L489.76,409.44 L490.45,412.97 L487.11,414.95 L482.55,416.14 L479.56,417.28 L478.91,419.03 L478.67,421.27 L477.98,423.22 L475.97,424.04 L474.17,424.54 L472.79,425.48 L471.36,425.97 L469.38,425.13 L467.2,426.99 L459.07,428.71 L457.27,430.63 L456.17,432.27 L450.76,437.34 L448.78,439.73 L450.11,442.95 L448.31,448.48 L442.34,444.93 L434.76,445.77 L434.76,452.51 L428.86,453.36 L425.49,448.3 L418.74,446.62 L413.69,444.09 L413.69,437.34 L411.16,430.6 L406.95,423.02 L406.95,414.59 L408.63,403.63 L408.63,396.05 L405.26,390.99 L401.89,385.94 L396.83,384.25 L390.09,383.41 L386.72,379.19 L385.88,358.97 L387.53,337.39 L393.21,331.07 L395.91,329.0 L399.18,327.88 L406.31,326.66 L409.22,325.3 L411.0,326.22 L412.67,326.36 L414.43,326.3 L416.4,326.6 L418.29,327.62 L422.56,330.65 L426.28,332.3 L433.3,338.59 L435.1,339.17 L440.49,339.79 L442.3,340.55 L446.58,342.89 L452.16,344.56 L458.0,349.11 L462.07,349.27 L464.04,348.29 L466.86,345.51 L468.07,344.59 L469.78,344.25 L475.97,344.59 L476.15,344.67 L479.05,346.03 L481.77,349.33 L484.97,355.38 L486.77,367.66 L488.02,370.47 L489.96,373.25 L491.38,377.01 Z"/><path id="203" title="Iganga" d="M705.42,661.82 L704.51,658.79 L701.77,656.4 L700.95,652.77 L701.37,648.95 L696.87,644.82 L696.16,632.95 L696.16,623.81 L686.0,618.22 L679.9,613.13 L680.41,606.02 L682.95,597.89 L681.12,587.94 L686.81,588.38 L689.81,589.39 L692.64,589.74 L699.46,586.27 L701.26,597.82 L703.6,600.97 L707.47,602.07 L715.42,605.3 L716.8,612.26 L718.25,616.83 L723.02,621.56 L723.47,628.59 L722.24,635.59 L718.92,640.9 L714.51,645.74 L712.97,652.66 L713.11,659.41 L713.17,661.33 L712.98,663.3 L705.42,661.82 Z"/><path id="124" title="Lwengo" d="M303.74,786.77 L313.53,792.5 L328.06,794.92 L331.89,795.39 L335.75,796.26 L345.61,796.04 L357.64,794.19 L361.01,793.0 L361.51,787.0 L381.5,787.0 L377.01,791.5 L377.01,799.99 L371.01,803.49 L363.51,807.49 L362.51,811.49 L365.51,817.49 L364.01,823.48 L360.01,827.98 L354.02,830.98 L347.36,831.31 L343.52,834.98 L342.02,843.98 L335.52,846.97 L327.33,844.02 L315.53,839.48 L304.03,831.48 L296.5,822.46 L294.04,814.99 L296.04,806.99 L299.04,798.99 L300.69,790.04 L301.85,788.08 L303.74,786.77 Z"/><path id="118" title="Bukomansimbi" d="M361.51,787.0 L358.01,771.0 L354.02,750.51 L351.52,737.75 L358.8,732.29 L363.88,733.38 L368.82,732.68 L373.01,739.02 L375.51,745.01 L379.51,754.51 L382.5,762.01 L384.0,770.0 L387.5,777.0 L386.5,781.0 L381.5,787.0 L361.51,787.0 Z"/><path id="122" title="Kalungu" d="M405.16,742.25 L409.4,747.09 L419.18,763.22 L416.4,764.53 L418.96,765.42 L420.0,765.61 L419.14,768.22 L417.6,775.31 L423.7,773.2 L425.46,773.03 L427.06,774.23 L426.98,776.94 L426.0,781.42 L418.99,783.5 L411.49,787.5 L381.5,787.0 L386.5,781.0 L387.5,777.0 L384.0,770.0 L382.5,762.01 L379.51,754.51 L375.51,745.01 L373.01,739.02 L368.82,732.68 L372.83,729.99 L377.29,727.7 L387.71,729.29 L394.22,732.16 L397.62,733.66 L405.16,742.25 Z"/><path id="102" title="Kampala" d="M532.17,659.27 L535.33,659.05 L537.98,657.07 L539.11,653.95 L542.52,652.95 L546.29,652.51 L548.42,656.32 L547.54,660.22 L546.91,666.12 L547.73,671.91 L550.96,682.2 L547.11,690.45 L537.13,690.31 L526.58,692.89 L522.41,687.69 L526.2,680.63 L528.63,677.54 L529.7,672.7 L529.41,671.4 L528.23,670.39 L528.03,668.87 L528.72,667.6 L526.07,665.44 L524.57,663.25 L526.89,656.07 L529.98,657.36 L532.17,659.27 Z"/><path id="322" title="Agago" d="M702.66,166.98 L703.54,179.8 L704.2,189.42 L706.67,221.12 L706.38,226.36 L707.52,231.07 L708.21,236.34 L710.84,240.84 L712.11,246.15 L712.09,252.22 L703.11,260.61 L698.21,272.35 L699.88,285.04 L689.85,285.51 L681.95,279.26 L679.19,282.21 L676.0,283.6 L671.95,282.09 L668.16,281.61 L665.25,284.6 L661.93,286.41 L654.75,284.06 L647.34,284.72 L644.53,283.87 L641.7,283.66 L637.67,285.05 L634.67,283.49 L632.13,281.58 L628.67,282.33 L620.02,271.13 L615.91,264.97 L620.53,259.84 L643.12,258.81 L648.77,252.65 L649.79,240.85 L646.2,234.69 L634.91,234.17 L625.67,232.63 L624.64,226.47 L629.77,222.37 L633.37,218.26 L633.37,211.07 L639.53,194.65 L643.71,181.16 L654.0,182.89 L660.99,180.46 L669.3,179.76 L667.79,168.1 L679.25,168.51 L674.44,161.58 L688.7,163.06 L691.82,164.88 L694.73,167.24 L698.61,167.56 L702.66,166.98 Z"/><path id="330" title="Otuke" d="M608.65,296.14 L613.77,289.92 L620.81,285.56 L628.67,282.33 L632.13,281.58 L634.67,283.49 L637.67,285.05 L641.7,283.66 L644.53,283.87 L647.34,284.72 L654.75,284.06 L661.93,286.41 L665.25,284.6 L668.16,281.61 L671.95,282.09 L676.0,283.6 L679.19,282.21 L681.95,279.26 L689.85,285.51 L699.88,285.04 L711.42,300.61 L716.69,304.49 L720.43,309.62 L721.41,318.41 L718.07,326.49 L713.2,331.45 L707.21,330.49 L701.97,327.27 L696.51,327.09 L691.89,330.17 L674.95,330.17 L672.38,328.11 L663.65,325.03 L650.31,324.52 L642.09,322.47 L638.5,318.87 L635.93,312.2 L628.23,309.12 L621.56,309.12 L617.45,312.2 L609.24,312.2 L600.0,310.15 L605.65,306.55 L608.21,300.91 L608.65,296.14 Z"/><path id="323" title="Alebtong" d="M671.26,386.38 L664.56,382.97 L657.21,382.84 L654.89,378.86 L652.11,375.43 L643.44,373.75 L636.53,370.19 L633.37,371.49 L629.99,370.8 L626.82,375.92 L621.15,378.13 L620.02,350.7 L616.43,344.54 L609.75,340.95 L603.08,335.81 L600.51,329.65 L594.35,327.6 L586.65,327.6 L587.68,323.49 L595.38,320.41 L600.0,315.28 L600.0,310.15 L609.24,312.2 L617.45,312.2 L621.56,309.12 L628.23,309.12 L635.93,312.2 L638.5,318.87 L642.09,322.47 L650.31,324.52 L663.65,325.03 L672.38,328.11 L674.95,330.17 L691.89,330.17 L696.51,327.09 L701.97,327.27 L701.77,331.85 L702.39,338.87 L697.3,343.84 L691.1,348.22 L684.04,348.33 L685.93,351.07 L688.65,353.32 L689.7,356.76 L688.85,360.65 L688.28,362.15 L687.58,363.58 L688.03,365.6 L688.74,367.23 L686.27,370.16 L682.71,371.21 L680.75,368.37 L678.01,367.78 L671.01,373.64 L670.1,380.57 L671.26,386.38 Z"/><path id="216" title="Amuria" d="M684.0,409.54 L679.36,404.27 L679.19,397.19 L676.85,394.96 L673.57,393.29 L672.08,389.99 L671.26,386.38 L670.1,380.57 L671.01,373.64 L678.01,367.78 L680.75,368.37 L682.71,371.21 L686.27,370.16 L688.74,367.23 L688.03,365.6 L687.58,363.58 L688.28,362.15 L688.85,360.65 L689.7,356.76 L688.65,353.32 L685.93,351.07 L684.04,348.33 L691.1,348.22 L697.3,343.84 L702.39,338.87 L701.77,331.85 L701.97,327.27 L707.21,330.49 L713.2,331.45 L718.07,326.49 L724.27,326.21 L733.15,317.27 L737.54,319.14 L765.11,336.33 L761.77,344.49 L760.33,352.99 L761.4,355.92 L763.38,358.24 L765.11,365.92 L765.36,369.98 L763.58,373.77 L762.51,376.78 L762.82,380.09 L764.04,381.9 L764.4,383.75 L763.26,385.46 L762.31,387.26 L762.2,390.16 L763.53,392.83 L762.75,400.77 L763.75,404.43 L763.58,407.91 L757.77,412.42 L755.63,416.91 L758.59,423.01 L758.83,429.92 L754.74,436.28 L748.14,440.99 L746.29,438.9 L744.8,436.88 L744.27,433.08 L743.33,429.45 L738.25,423.63 L732.19,418.71 L730.64,416.63 L728.92,414.81 L725.13,412.91 L721.91,410.2 L721.22,407.17 L720.08,404.15 L716.56,402.71 L712.78,401.9 L706.98,398.6 L702.62,393.81 L699.3,387.5 L692.51,386.01 L688.32,389.11 L687.32,394.82 L685.29,401.99 L684.0,409.54 Z"/><path id="232" title="Serere" d="M677.2,506.45 L675.04,503.08 L672.5,500.29 L664.51,500.69 L656.62,502.96 L642.61,500.59 L642.46,484.09 L643.78,464.92 L649.34,457.22 L649.79,450.29 L650.82,442.59 L661.09,442.59 L668.27,439.51 L670.84,443.61 L682.65,446.69 L687.78,457.47 L695.48,462.61 L707.8,465.69 L719.09,464.66 L731.7,461.47 L723.18,492.82 L715.91,496.41 L713.76,497.71 L711.61,497.9 L709.57,499.2 L706.25,503.03 L704.29,507.4 L693.51,509.36 L689.34,508.5 L685.89,509.96 L683.04,509.29 L681.28,505.86 L677.2,506.45 Z"/><path id="211" title="Soroti" d="M668.27,439.51 L676.49,433.35 L682.97,429.48 L683.11,426.02 L683.15,422.72 L686.25,417.09 L685.78,413.18 L684.0,409.54 L685.29,401.99 L687.32,394.82 L688.32,389.11 L692.51,386.01 L699.3,387.5 L702.62,393.81 L706.98,398.6 L712.78,401.9 L716.56,402.71 L720.08,404.15 L721.22,407.17 L721.91,410.2 L725.13,412.91 L728.92,414.81 L730.64,416.63 L732.19,418.71 L738.25,423.63 L743.33,429.45 L744.27,433.08 L744.8,436.88 L746.29,438.9 L748.14,440.99 L747.5,444.97 L748.41,448.02 L744.07,450.11 L738.61,449.13 L734.93,451.95 L732.91,457.0 L731.7,461.47 L719.09,464.66 L707.8,465.69 L695.48,462.61 L687.78,457.47 L682.65,446.69 L670.84,443.61 L668.27,439.51 Z"/><path id="210" title="Pallisa" d="M683.78,514.87 L678.94,512.83 L677.2,506.45 L681.28,505.86 L683.04,509.29 L685.89,509.96 L689.34,508.5 L693.51,509.36 L704.29,507.4 L730.17,505.67 L734.34,505.57 L736.07,508.51 L739.39,511.27 L744.65,510.3 L749.5,510.78 L752.58,514.39 L755.96,517.47 L760.59,518.78 L765.47,519.53 L768.79,522.14 L771.55,525.63 L786.85,528.78 L790.42,530.07 L793.89,532.0 L802.13,534.13 L802.27,537.8 L804.16,540.97 L804.47,545.26 L796.79,541.98 L790.19,538.93 L778.5,535.37 L764.78,535.88 L756.14,539.44 L742.92,545.54 L730.72,550.11 L717.21,549.98 L713.4,544.74 L710.79,538.66 L707.07,534.5 L702.53,530.77 L700.01,530.09 L698.12,529.75 L693.66,523.49 L689.05,518.82 L683.78,514.87 Z"/><path id="410" title="Mbarara" d="M196.52,719.85 L192.39,712.26 L200.07,708.64 L206.71,708.34 L220.89,708.34 L229.03,708.34 L242.61,707.73 L255.01,705.43 L258.02,712.47 L261.67,719.06 L262.4,726.05 L262.54,737.35 L261.04,741.15 L258.77,743.46 L257.66,746.39 L262.62,747.06 L268.51,748.76 L269.68,763.36 L266.19,777.96 L266.39,789.47 L268.06,795.58 L271.18,801.38 L276.1,815.38 L279.4,821.07 L280.85,827.47 L278.55,833.75 L275.57,841.86 L268.04,855.58 L261.82,860.68 L254.41,862.5 L246.66,862.67 L238.91,861.97 L235.1,862.15 L231.24,863.02 L229.26,860.31 L227.79,856.59 L221.64,850.86 L213.65,847.2 L215.25,841.74 L216.19,836.4 L221.47,828.36 L202.11,813.43 L197.86,808.89 L198.59,802.58 L196.19,798.78 L191.31,797.64 L185.54,791.43 L188.42,780.86 L189.39,775.9 L192.58,772.5 L196.95,770.16 L182.05,765.33 L185.5,753.61 L191.7,743.28 L200.26,735.0 L208.24,719.85 L196.52,719.85 Z"/><path id="116" title="Lyantonde" d="M274.77,745.78 L278.89,746.57 L288.33,749.67 L288.89,752.75 L298.19,757.2 L300.45,751.12 L305.41,754.3 L309.15,758.59 L308.4,763.45 L309.26,766.0 L309.49,768.63 L308.82,773.39 L307.01,777.59 L305.68,782.45 L303.74,786.77 L301.85,788.08 L300.69,790.04 L299.04,798.99 L296.04,806.99 L294.04,814.99 L296.5,822.46 L295.04,832.98 L287.54,834.48 L278.55,833.75 L280.85,827.47 L279.4,821.07 L276.1,815.38 L271.18,801.38 L268.06,795.58 L266.39,789.47 L266.19,777.96 L269.68,763.36 L268.51,748.76 L272.36,747.39 L274.77,745.78 Z"/><path id="105" title="Masaka" d="M412.34,876.85 L405.88,876.39 L400.32,875.0 L397.09,873.62 L390.62,871.31 L386.91,869.49 L382.81,864.52 L379.15,856.43 L376.08,852.92 L373.66,848.44 L373.94,843.94 L375.14,842.79 L375.82,841.47 L374.45,836.9 L375.99,832.32 L370.82,824.72 L364.01,823.48 L365.51,817.49 L362.51,811.49 L363.51,807.49 L371.01,803.49 L377.01,799.99 L377.01,791.5 L381.5,787.0 L411.49,787.5 L418.99,783.5 L426.0,781.42 L426.88,783.17 L427.73,783.84 L428.76,783.9 L430.25,783.82 L431.58,784.28 L432.01,785.41 L432.19,786.78 L432.7,787.96 L434.14,789.91 L435.66,792.67 L436.78,795.64 L441.94,797.8 L442.39,802.42 L439.62,806.12 L435.46,808.44 L431.76,810.74 L428.06,813.52 L428.06,876.85 L412.34,876.85 Z"/><path id="108" title="Mukono" d="M569.67,592.53 L574.89,603.57 L581.25,613.93 L588.13,619.34 L597.49,623.31 L602.88,627.56 L611.63,637.89 L604.01,642.87 L603.45,651.38 L606.28,661.3 L611.1,668.11 L609.68,677.75 L602.03,685.97 L591.82,695.9 L587.0,704.69 L581.89,710.36 L581.61,716.31 L566.24,734.47 L536.72,769.6 L517.07,769.6 L522.19,762.79 L530.07,752.36 L539.65,740.54 L539.34,717.48 L541.37,703.13 L543.33,695.68 L547.11,690.45 L550.96,682.2 L547.73,671.91 L546.91,666.12 L547.54,660.22 L548.42,656.32 L546.29,652.51 L548.25,648.08 L548.16,643.25 L562.77,637.79 L566.22,626.08 L568.97,608.86 L569.67,592.53 Z"/><path id="117" title="Buikwe" d="M611.63,637.89 L613.94,640.6 L623.39,645.4 L633.75,654.09 L637.81,659.27 L638.96,665.78 L638.32,672.08 L643.74,676.14 L653.99,679.46 L645.59,684.08 L639.87,688.52 L638.62,694.77 L636.64,702.07 L629.5,709.05 L619.82,724.98 L608.49,766.77 L579.25,822.1 L579.25,769.6 L536.72,769.6 L566.24,734.47 L581.61,716.31 L581.89,710.36 L587.0,704.69 L591.82,695.9 L602.03,685.97 L609.68,677.75 L611.1,668.11 L606.28,661.3 L603.45,651.38 L604.01,642.87 L611.63,637.89 Z"/><path id="311" title="Nakapiripirit" d="M882.18,465.57 L879.04,465.4 L877.08,463.93 L874.69,462.79 L869.97,461.44 L857.74,467.85 L847.99,467.52 L832.4,469.21 L829.86,468.1 L827.48,466.54 L824.74,466.93 L822.0,467.78 L822.85,455.35 L821.15,454.66 L818.84,454.52 L818.87,397.73 L825.8,397.74 L835.91,396.05 L842.65,393.52 L844.34,387.62 L850.24,384.25 L860.35,377.51 L887.32,375.82 L892.37,368.24 L893.22,305.87 L914.18,304.75 L919.34,318.52 L925.24,335.37 L926.62,360.33 L929.46,369.92 L932.83,390.15 L923.56,390.99 L922.71,406.16 L922.71,428.92 L920.19,445.77 L913.44,457.57 L904.17,463.47 L893.57,470.39 L885.36,465.37 L882.18,465.57 Z"/><path id="228" title="Kween" d="M869.97,461.44 L874.69,462.79 L877.08,463.93 L879.04,465.4 L882.18,465.57 L885.36,465.37 L893.57,470.39 L901.29,475.11 L912.0,491.71 L909.37,500.57 L903.76,507.75 L900.35,509.43 L896.65,510.0 L891.98,511.83 L887.68,514.61 L881.84,521.72 L877.97,530.18 L877.6,517.08 L881.67,506.91 L881.16,499.8 L875.06,495.73 L863.88,492.68 L857.74,487.11 L861.18,479.83 L855.67,472.59 L847.99,467.52 L857.74,467.85 L869.97,461.44 Z"/><path id="325" title="Buhweju" d="M136.07,778.12 L150.93,787.99 L152.16,790.31 L154.07,791.93 L156.72,791.4 L158.12,789.11 L158.73,786.78 L160.57,785.37 L164.41,784.58 L167.72,785.9 L165.83,796.4 L166.52,808.34 L161.29,813.38 L161.82,819.27 L138.63,821.15 L136.57,827.35 L128.99,824.6 L116.58,817.71 L103.49,814.26 L104.87,794.96 L109.0,791.52 L117.27,786.69 L128.99,783.94 L136.07,778.12 Z"/><path id="425" title="Sheema" d="M161.82,819.27 L161.62,826.54 L157.74,839.41 L156.63,845.0 L153.94,851.64 L138.72,866.36 L127.17,873.52 L121.09,873.68 L116.01,872.59 L112.18,868.23 L113.82,861.81 L108.31,852.16 L122.78,850.79 L134.5,849.41 L136.57,839.07 L136.57,827.35 L138.63,821.15 L161.82,819.27 Z"/><path id="422" title="Mitooma" d="M112.18,868.23 L106.85,866.75 L102.57,870.17 L98.57,873.99 L93.89,873.66 L89.52,874.41 L79.08,866.83 L75.83,859.28 L70.77,853.47 L64.07,850.1 L61.28,843.53 L63.62,842.17 L66.29,841.18 L66.76,838.63 L68.81,834.53 L69.21,829.64 L76.61,834.94 L82.81,837.0 L88.33,835.62 L93.84,835.62 L97.97,839.76 L99.35,845.27 L101.42,850.1 L108.31,852.16 L113.82,861.81 L112.18,868.23 Z"/><path id="402" title="Bushenyi" d="M69.21,829.64 L69.77,826.96 L70.12,822.52 L69.28,818.77 L64.21,811.5 L69.72,810.13 L76.61,805.99 L83.5,802.55 L89.01,803.92 L95.22,811.5 L103.49,814.26 L116.58,817.71 L128.99,824.6 L136.57,827.35 L136.57,839.07 L134.5,849.41 L122.78,850.79 L108.31,852.16 L101.42,850.1 L99.35,845.27 L97.97,839.76 L93.84,835.62 L88.33,835.62 L82.81,837.0 L76.61,834.94 L69.21,829.64 Z"/><path id="201" title="Bugiri" d="M713.11,659.41 L712.97,652.66 L714.51,645.74 L718.92,640.9 L722.24,635.59 L723.47,628.59 L723.02,621.56 L718.25,616.83 L716.8,612.26 L722.39,615.26 L728.23,617.7 L733.47,618.38 L736.76,614.07 L742.18,621.76 L747.61,621.58 L753.13,619.87 L755.56,620.08 L757.99,620.75 L761.04,627.13 L763.33,634.08 L774.14,641.9 L772.67,644.78 L769.39,645.45 L763.18,653.86 L762.8,657.74 L756.81,661.27 L753.37,666.09 L751.64,673.67 L746.13,673.33 L740.27,675.74 L734.07,680.22 L726.31,684.47 L727.83,676.27 L718.53,674.12 L714.97,669.55 L710.9,667.01 L712.98,663.3 L713.17,661.33 L713.11,659.41 Z"/><path id="329" title="Nwoya" d="M494.12,307.31 L486.86,308.14 L479.6,307.38 L472.97,308.91 L472.03,316.1 L472.86,330.63 L476.15,344.67 L475.97,344.59 L469.78,344.25 L468.07,344.59 L466.86,345.51 L464.04,348.29 L462.07,349.27 L458.0,349.11 L452.16,344.56 L446.58,342.89 L442.3,340.55 L440.49,339.79 L435.1,339.17 L433.3,338.59 L426.28,332.3 L422.56,330.65 L418.29,327.62 L416.4,326.6 L414.43,326.3 L412.67,326.36 L411.0,326.22 L409.22,325.3 L406.31,326.66 L399.18,327.88 L395.91,329.0 L393.21,331.07 L387.53,337.39 L370.98,342.95 L367.69,343.38 L366.28,343.0 L364.37,341.37 L362.78,340.99 L350.74,340.99 L348.15,341.75 L342.14,345.13 L333.65,347.34 L324.92,353.77 L320.16,355.38 L319.11,355.92 L315.58,358.24 L313.18,348.34 L314.52,343.62 L320.98,336.69 L330.05,332.4 L334.17,329.93 L336.88,327.34 L337.6,322.84 L338.26,318.1 L338.29,315.57 L339.16,311.62 L340.91,308.55 L343.54,307.31 L345.46,306.82 L346.77,305.54 L347.51,303.78 L347.75,301.81 L347.02,300.35 L345.32,300.45 L343.36,301.07 L341.85,301.21 L338.78,298.6 L336.12,291.07 L334.01,287.42 L331.52,284.63 L329.26,281.37 L336.96,279.11 L342.56,273.5 L350.65,264.79 L358.12,261.06 L378.66,261.06 L381.15,254.21 L386.13,249.85 L427.83,249.23 L434.05,252.97 L440.27,253.59 L448.36,253.59 L454.59,257.95 L462.06,259.81 L465.79,261.68 L463.5,267.26 L460.22,271.77 L458.98,276.7 L461.45,282.04 L466.38,284.92 L477.46,285.7 L476.69,287.87 L477.04,291.38 L477.87,294.84 L480.59,299.42 L485.2,302.41 L490.85,304.13 L494.12,307.31 Z"/><path id="328" title="Napak" d="M821.37,262.54 L825.87,243.54 L835.91,247.72 L848.55,249.41 L858.66,253.62 L871.31,264.58 L880.58,273.01 L889.0,275.54 L894.9,277.22 L894.9,288.18 L905.02,291.55 L911.76,298.29 L914.18,304.75 L893.22,305.87 L892.37,368.24 L887.32,375.82 L860.35,377.51 L850.24,384.25 L844.34,387.62 L842.65,393.52 L835.91,396.05 L825.8,397.74 L818.87,397.73 L818.88,378.81 L817.3,370.21 L810.69,364.77 L765.11,336.33 L737.54,319.14 L733.15,317.27 L724.27,326.21 L718.07,326.49 L721.41,318.41 L720.43,309.62 L725.85,309.27 L730.95,307.76 L741.59,301.77 L753.07,301.9 L764.36,303.22 L777.34,301.67 L782.75,301.54 L785.18,300.13 L784.74,298.02 L780.73,294.73 L778.68,289.8 L774.78,285.36 L773.0,281.44 L775.23,262.89 L783.66,256.99 L799.35,258.41 L807.03,257.75 L821.37,262.54 Z"/><path id="208" title="Kumi" d="M822.85,455.35 L822.0,467.78 L807.47,471.85 L796.79,473.88 L789.17,478.45 L790.19,489.63 L785.1,493.19 L781.55,496.24 L781.55,503.36 L782.05,513.52 L774.94,517.59 L768.79,522.14 L765.47,519.53 L760.59,518.78 L755.96,517.47 L752.58,514.39 L749.5,510.78 L744.65,510.3 L743.43,497.26 L747.5,492.18 L754.1,489.63 L755.12,478.45 L753.59,461.68 L757.15,455.58 L763.38,453.25 L771.98,455.92 L780.73,453.72 L789.08,452.57 L818.84,454.52 L821.15,454.66 L822.85,455.35 Z"/><path id="231" title="Ngora" d="M748.41,448.02 L756.49,448.76 L763.38,453.25 L757.15,455.58 L753.59,461.68 L755.12,478.45 L754.1,489.63 L747.5,492.18 L743.43,497.26 L744.65,510.3 L739.39,511.27 L736.07,508.51 L734.34,505.57 L730.17,505.67 L704.29,507.4 L706.25,503.03 L709.57,499.2 L711.61,497.9 L713.76,497.71 L715.91,496.41 L723.18,492.82 L731.7,461.47 L732.91,457.0 L734.93,451.95 L738.61,449.13 L744.07,450.11 L748.41,448.02 Z"/><path id="224" title="Bukedea" d="M802.13,534.13 L793.89,532.0 L790.42,530.07 L786.85,528.78 L771.55,525.63 L768.79,522.14 L774.94,517.59 L782.05,513.52 L781.55,503.36 L781.55,496.24 L785.1,493.19 L790.19,489.63 L789.17,478.45 L796.79,473.88 L807.47,471.85 L822.0,467.78 L821.67,479.45 L821.98,483.64 L824.27,486.58 L828.75,495.19 L826.83,504.55 L825.23,509.17 L824.31,514.02 L822.24,518.69 L819.28,522.94 L815.36,531.47 L809.22,536.71 L805.52,536.02 L802.13,534.13 Z"/></svg>